<mxfile host="app.diagrams.net" modified="2023-09-24T23:23:26.456Z" agent="Mozilla/5.0 (Macintosh; Intel Mac OS X 10_15_7) AppleWebKit/537.36 (KHTML, like Gecko) Chrome/116.0.0.0 Safari/537.36" etag="nsBmlAHbctgzuyRGFAXf" version="21.8.1" type="github">
  <diagram name="Page-1" id="xw_CyEnjOwTLRPRQ1C41">
    <mxGraphModel dx="880" dy="510" grid="0" gridSize="10" guides="1" tooltips="1" connect="1" arrows="1" fold="1" page="1" pageScale="1" pageWidth="850" pageHeight="1100" math="0" shadow="0">
      <root>
        <mxCell id="0" />
        <mxCell id="1" parent="0" />
        <mxCell id="g2giiAnqPQ5w9crpu-lO-2" value="User" style="verticalLabelPosition=bottom;html=1;verticalAlign=top;align=center;strokeColor=none;fillColor=#00BEF2;shape=mxgraph.azure.user;" vertex="1" parent="1">
          <mxGeometry x="402" y="888" width="47.5" height="50" as="geometry" />
        </mxCell>
        <mxCell id="g2giiAnqPQ5w9crpu-lO-13" style="edgeStyle=orthogonalEdgeStyle;rounded=0;orthogonalLoop=1;jettySize=auto;html=1;exitX=0.5;exitY=0;exitDx=0;exitDy=0;entryX=0;entryY=0.5;entryDx=0;entryDy=0;" edge="1" parent="1" source="g2giiAnqPQ5w9crpu-lO-3" target="g2giiAnqPQ5w9crpu-lO-4">
          <mxGeometry relative="1" as="geometry" />
        </mxCell>
        <mxCell id="g2giiAnqPQ5w9crpu-lO-25" value="2" style="edgeLabel;html=1;align=center;verticalAlign=middle;resizable=0;points=[];" vertex="1" connectable="0" parent="g2giiAnqPQ5w9crpu-lO-13">
          <mxGeometry x="-0.1122" relative="1" as="geometry">
            <mxPoint as="offset" />
          </mxGeometry>
        </mxCell>
        <mxCell id="g2giiAnqPQ5w9crpu-lO-3" value="" style="shape=image;verticalLabelPosition=bottom;labelBackgroundColor=default;verticalAlign=top;aspect=fixed;imageAspect=0;image=data:image/png,iVBORw0KGgoAAAANSUhEUgAAAgAAAAIACAYAAAD0eNT6AAAABHNCSVQICAgIfAhkiAAAAAlwSFlzAAAN1wAADdcBQiibeAAAABl0RVh0U29mdHdhcmUAd3d3Lmlua3NjYXBlLm9yZ5vuPBoAACAASURBVHic7N13mFTV4cbx77Tt9I6K9CJSbNjGFqOCNZpi/CWxxVEBdaQIKChW7GWSaIxj7CUau0HFqCAMRYoiBkFBqvS2LMsC2+b3xywIuMu2O3PuvfN+nsdHXGfufUPknveec4snHo8jIvYWDsWygWbV/JULZAIZFX+vya8BdgHFFX+vya+3A5sO9FckGtyRjN8HEbGORwVAxJxwKJYBHAJ0ANrv9ffW7Du4Z5tJWGc72LcUrAWWAUv3+vvKSDRYbCifSNpTARBJonAo5gXase/gvvff2wJeM+mMKwdWs28p2PvvKyLRYLmhbCKupwIgYpFwKNYc6A30qvh7b6Anzjt7t4sdwHxgXsVf3wDzItHgRqOpRFxCBUCkliqm7Xvw0yC/e8BvYzJXGlnDXoWg4q8FWk4QqR0VAJFqhEOxTsCJQBA4HugO+I2Gkv2VAguB6UAMmBqJBn8wG0nE3lQARPYSDsX8wBH8NOCfSOKCPHGetcBUKgoB8FUkGiw1G0nEPlQAJK2FQ7GGJM7qdw/4xwI5RkNJshQBX/BTIZgeiQYLzEYSMUcFQNJKxVX5/YABQH/gaNL3Kvx0Vw7MBj4CPgRm6q4DSScqAOJ64VCsNXAWiQH/TKCp2URiU5uBj0kUggmRaHCt4TwiSaUCIK5TsY5/AokBvz/QF/AYDSVOEwfmkigDHwHTdP2AuI0KgLhCOBRrBPwKOB/4JdDQbCJxmQLgE+A94J1INLjVcB6RelMBEMcKh2INSAz4F5OY4s8wm0jSRDEwAXgNeC8SDW4znEekTlQAxFHCoVgucC6JQX8AkGU2kaS5nSQuIHwN+E8kGtxuOI9IjakAiO1VvAnvbBKD/jnoNj2xpyJgPIky8IHeiCh2pwIgtlRxu96ZwKXAeUCe2UQitVIIvA+8AHys2wvFjlQAxFbCodjBwJXAn0m8RU/E6VYA/wSeiUSDP5oOI7KbCoAYFw7FfCSm9kMk1vV9ZhOJJEUZiesFosD4SDRYZjiPpDkVADEmHIp1IHGmfwXQ1nAckVRaDTwL/DMSDS41HUbSkwqApFQ4FAsAFwBXk7hfXw/okXQWJ/F8gaeAdyPRYInhPJJGVAAkJcKhWHNgEDAYaGk4jogdrQceB56IRIMbTYcR91MBkKQKh2JdgKHAZUC24TgiTrADeB54JBINLjIdRtxLBUCSIhyKBYFhJJ7Up7ftidReOYlHDz8ciQZjpsOI+6gAiGUqrua/EBgOHGs4joibfAE8BLytuwfEKioAUm8Vj+e9ErgR6Gg4joibLQUeJfFMAT12WOpFBUDqLByKNSQx6N8INDEcRySdbAEeAx6LRIMFpsOIM6kASK1VnPFfB4wAmhqOI5LONgMPAH/TjIDUlgqA1Fg4FMsCBgKj0K18InayHrgP+HskGtxpOow4gwqAVCscimUAVwGj0RP7ROxsNXAP8HQkGiw2HUbsTQVAqhQOxfzA5cCt6MU8Ik6yArgLeC4SDZaaDiP2pAIgP1PxKt4/AGOBTobjiEjd/QDcAbysVxLL/lQAZB/hUOxUElcX9zEcRUSs8zVwYyQanGQ6iNiHCoAAe97M9xBwkeksIpI0bwHD9QZCARWAtBcOxfKAW0g8rz/TcBwRSb5dwCPAuEg0WGg6jJijApCmwqGYh8QLeu4FWhuOIyKptxa4GXg+Eg1qIEhDKgBpKByKnUhinf9o01lExLjZJK4PmGo6iKSWCkAaCYdi7YD7gd+bziIitvMvYGQkGlxhOoikhgpAGqh4S98QErcD5RiOIyL2VUTi9t9H9dZB91MBcLlwKNYXeBo4ynQWEXGMOcBVkWhwrukgkjwqAC5V8dz+24FhgN9sGhFxoFLgYeB2vV/AnVQAXKjiYT5PAV0MRxER51sEXK2HCLmPCoCLhEOxxsCDwJ8Bj+E4IuIeceCfwE2RaDDfdBixhgqAS4RDsYuAvwFtTGcREddaA1wXiQbfMh1E6k8FwOHCoVhr4AngQtNZRCRtvA0MikSDa00HkbpTAXCwcCh2Polpueams4hI2tkI/DkSDb5nOojUjQqAA4VDsRwSz/K+xnQWEUl7/wCGRqLBItNBpHZUABwmHIodCbwCdDOdRUSkwnfA/0WiwS9NB5GaUwFwiHAo5gWGA3cDAcNxRET2VwKMAR6KRIPlpsNI9VQAHCAcih0MvACcZjqLiEg1JgKXRqLBH00HkQPzmg4gBxYOxX4LzEODv4g4w2nAvIpjl9iYZgBsKhyK5QF/BS43HEVEpK6eA66PRIOFpoPIz6kA2FA4FOtG4j7bHqaziIjU0wLgwkg0+J3pILIvLQHYTDgU+xUwEw3+IuIOPYCZFcc2sRHNANhExVX+dwOj0HP8RcR94sB9wBjdJWAPKgA2EA7FmpG4t/9M01lERJLsYxLPDNhkOki6UwEwrOLBPm8Bh5rOIiKSIsuBi/TgILN0DYBB4VDscmAqGvxFJL0cCkytOAaKIZoBMCAcimUAjwEDTWcRETHs78CNkWiw2HSQdKMCkGLhUKwViVv8jjedRUTEJqaTuFVwnekg6UQFIIXCoVgP4AOgveEoIiJ2sww4OxINLjAdJF3oGoAUCYdipwHT0OAvIlKZ9sC0imOlpIAKQAqEQ7FLgQlAY9NZRERsrDEwoeKYKUmmApBk4VDsduB59ApfEZGaCADPVxw7JYl0DUCSVFzp/zTwJ9NZREQc6kXgKt0hkBwqAEkQDsUak7jS/1TDUUREnG4SiTsE8k0HcRsVAIuFQ7EOwHj0Mh8REassAM6JRINLTQdxE10DYKFwKHYUMAMN/iIiVuoBzKg4xopFVAAsEg7FgsBnQEvTWUREXKgl8FnFsVYsoAJggXAodgaJ2/wams4iIuJiDUncJniG6SBuoAJQT+FQ7ALgfSDHdBYRkTSQA7xfceyVelABqIdwKHYJ8AaQaTqLiEgayQTeqDgGSx2pANRROBS7CngJ8JvOIiKShvzASxXHYqkDFYA6CIdiNwJPod8/ERGTvMBTFcdkqSUNYLUUDsXGAI8CHtNZREQED/BoxbFZakEPAqqFcCh2PzDCdA4REanUA5FocKTpEE6hGYAa0uAvImJ7IyqO1VIDKgA1UDG1pMFfRMT+Rmg5oGa0BFCNiotLHjWdQ0REamVIJBp8zHQIO1MBOICK20ueQhf8iYg4TRy4OhINPm06iF2pAFSh4gETL6FlEhERpyoH/hiJBl81HcSOVAAqUfGIyTfQQ35ERJyuFPhNJBp813QQu1EB2E/FSybeR4/3FRFxi13AeZFo8L+mg9iJCsBeKl4zOQG92EdExG2KgLMi0WDMdBC7UAGoEA7FjgI+Q6/0FRFxqwLgF5FocI7pIHagAgCEQ7EOwAygpeksIiKSVOuB4yLR4FLTQUxL+yvcw6FYY2A8GvxFRNJBS2B8xbE/raV1AQiHYhnA20AP01lERCRlegBvV4wBaSutCwDwNHCq6RAiIpJyp5IYA9JW2haAcCh2O/AnwzFERMScP1WMBWkpLS8CDIdilwLPm84hIiK2cFkkGnzBdIhUS7sCEA7FTiNxr3/AdBYREbGFEhLPCJhoOkgqpVUBCIdiPYBpQNpf/SkiIvvIB06IRIMLTAdJlbQpAOFQrBWJe/3bG44iIiL2tIzEMwLWmQ6SCmlxEeBet/u1NxxFRETsqz1pdHtgWhQA4DHgeNMhRETE9o4nMWa4nuuXAMKh2OXAs6ZziIiIo1wRiQafMx0imVxdAMKh2JHAVCDLdBYREXGUncCJkWjwS9NBksW1BSAcijUD5gCHms4iIiKOtBw4KhINbjIdJBlceQ1AOBTzAq+gwV9EROruUOCVijHFdVz5Pwq4GzjTdAgREXG8M0mMKa7juiWAcCj2K+AtwGM6i4i4UyDgoaTEXcdOOaA4cFEkGnzHdBAruaoAhEOxbsBMoKHpLCLiTq3aZHHd8N6sXb2d2KQ1zJ+3hVKVgXRQAPSLRIPfmQ5iFdcUgHAolkdi8O9hOouIuFPbg3O4bngvcnN/epVIYWEJUz9fzRdT17Npwy6D6SQFFpAoAYWmg1jBbzqAhf6KBn8RSZKD2+Vw3bDeZOfse9jMywtw1jmHctY5h7Jg/mZik9aw4Jt8ysrccXIl++hBYqy5wnQQK7hiBiAciv0WeN10DhFxp0M75jFoSC+ysnw1+nxBQTFTJyVmBbZsLk5yOjHgd5Fo8N+mQ9SX4wtAOBQ7GJgHNDGdRUTcp1OXPK69sRcZGTUb/PcWj8P8eRuJTVrDd98WUF7u7OOt7LEF6B2JBn80HaQ+HF0AKu7N/AQ4zXQWEXGfrj0acvX1hxMI1P+O6fwtu5gycTWzpq9na36JBenEsInALyPRYLnpIHXl9OcADEeDv4gkQffDG3HtDdYM/gCNm2Ry3kUduOOBflwxsBvdDmuI16u7lR3sNBJjkGM5dgag4jn/M4BAdZ8VEamNw/s24c8DD0v6AL15004mf7aK2TM2sq1AswIOVAIc59T3BTiyAIRDsRzgS6Cb6Swi4i59j27K5Vf3wONJ3dl5eXmcr2avZ+rna1myaBsOPCyns++AIyPRYJHpILXl1NsAH0GDv4hY7OjjmvPHK7uTwrEfAK/Xw1H9WnFUv1ZsWFfE5ImrmPPFJrYXlqY2iNRFNxJj0rWmg9SW42YAwqHY+cC7pnOIiLscF2zBJZfZ57yirLScOTPXM23yWpYtKdSsgP1dEIkG3zMdojYcVQDCoVhr4BugueksIuIewdNa8dv/62I6RpXWrt7O5Imr+WrmRoqKykzHkcptBHpFosG1poPUlNPuAngCDf4iYqHTzmxj68EfoHXbXH73hy7c9fCxXHxpJ9q1zzUdSX6uOYkxyjEcMwMQDsUuAt40nUNE3OOMcw7i3F91MB2jTlatLGTyZ6uYO3szO3dqVsBGfh2JBt8yHaImHFEAwqFYY+BboI3pLCLiDgMuOIT+5x5qOka9FReX8cXUtUyfso5VKx13IbobrQEOi0SD+aaDVMcpdwE8iAZ/EbGAxwPn/bodp5/VznQUS2Rk+DjptIM46bSDWL6sgCmfrebrLzdTvMuxD6hzujYkxqyQ6SDVsf0MQDgUOxX4DNAjs0SkXjweuPD37TnlFwebjpJUO3eWMSO2hhmxdaxZtcN0nHQUB34RiQYnmQ5yILYuAOFQLIvEi37sfYWOiNie1+vhN3/owIkntzUdJaWWLN7KlImr+WbuFkqKNSuQQotIvDBop+kgVbH7EsDtaPAXkXryej1cclkn+p3Q2nSUlOvYuREdOzdiR1Ep06asZkZsPevX2nZMcpMuJMawUYZzVMm2MwDhUKwvMAv7lxQRsTGvz8Mfr+zMUf1amY5iG4u+28KUiWuYP28LpSX2HANcohQ4JhINzjUdpDK2LADhUMwHfAEcZTqLiDiX3+/h0lBX+hzZwnQUWyosLGHq56v5Yup6Nm3YZTqOW80Bjo1Eg7a7V9OuZ9dD0OAvIvUQyPByxTXd6Nm7mekotpWXF+Cscw7lrHMOZcH8zcQmrWHBN/mUldnvxNDBjiIxpj1kOsj+bDcDEA7F2gELgBzTWUTEmQIZXq4a3J3uhzU1HcVxCgqKmTopMSuwZXOx6ThuUQT0iESDK0wH2ZsdZwDuR4O/iNRRZpaPq6/rQedujU1HcaSGDTMYcH57+p/XnvnzNhKbtIbvvi2gvNxeJ4sOk0NibLvEdJC92WoGIByKnQjETOcQEWfKzvFzzQ096NCpkekorpK/ZRdTJq5m1vT1bM0vMR3HyYKRaHCq6RC72aYAhEMxDzATONp0FhFxnpxcHwNvPJx27RuYjuJa8Xicr7/ayLTP17Bo4TbNCtTebKBfJBq0xW+cnZYALkODv4jUQV4DP4OGHs5BB+eZjuJqHo+Hvke2oO+RLdi8aSeTP1vF7Bkb2VagWYEaOprEWPec4RyATWYAwqFYHomnJqXfUzpEpF4aNgoweOjhtG6rV+SaUF4e56vZ65n6+VqWLNqGDYYUu1sLdIlEg4Wmg9hlBuAWNPiLSC01ahLg+mG9aNFK1w2b4vV6OKpfK47q14oN63fw2P1zKSyw3S3vdtKaxJh3i+kgXtMBwqFYB2Co6Rwi4ixNm2cQHtFbg7+NtGiZTWlZCUVFeqhQNYZWjH1GGS8AJB6OkGk6hIg4R/MWmYRH9KFZ82zTUaQSGzduUwk4sExs8GAgowWg4lW/F5nMICLO0rJ1FuGRfWjcROcNdrT7ve0qAdW6qGIMNMZYAQiHYl7gMVP7FxHnaXNQNuERvWnYKMN0FKkBlYBqPVYxFhphcgbgD0Afg/sXEQc56JAcbripN3kNNPg7iUrAAfUhMRYaYaQAhEMxPzDWxL5FxHkO7ZDLDTf1Jic3YDqKVMPj+fnPVAIOaGzFmJhypmYALgc6Gdq3iDhIh84NGDysN1nZdrlrWepCJaBKnUiMiSmX8gIQDsUygFtTvV8RcZ7O3RoweGgvMjN9pqOIBVQCqnRrxdiYUiZmAK4C2hnYr4g4SLfDGjHwxl4EAna4W1lqrLI1gL2oBFSqHYmxMaVS+icrHIplAaNTuU8RcZ6evRtzzQ2H4/dr8HcjlYBKja4YI1Mm1X+6BgJtU7xPEXGQPkc25arBPfH5DnwmKc6mEvAzbUmMkSmTsgIQDsVygVGp2p+IOM+R/ZpxxbWH4fVq8HeqalYA9qES8DOjKsbKlEjlDMB1QMsU7k9EHOTYE5tz6VU9ajWAiPOpBOyjJYmxMiVSUgDCoVhDYEQq9iUiznPCKS35v8u7a/BPUyoB+xhRMWYmXapmAG4EmqZoXyLiIKf8sjUX/7Gr6Rhikbp2OJWAPZqSGDOTLukFoGI9IyX/Y0TEWU4f0JaLLu5sOobYhErAHjem4lqAVMwAXAk0ScF+RMRB+p9/MOdf1NF0DLFYfZdxVAKAxJh5ZbJ3ktQCEA7FfMCQZO5DRJzF44FzL2rHgPPam44iNqUSAMCQijE0aZI9A3Ah0CHJ+xARh/B44ILfHsoZA/QwUDkwlQA6kBhDkybZBWB4krcvIg7h9Xr4zf914LQzDjEdRZLJwls5VAKSO4YmrQCEQ7EgcGyyti8izuH1erj4Tx0JnnqQ6SjiMGleAo6tGEuTIpkzAMOSuG0RcQivz8MfruzMccE2pqOIQ6V5CUjaWJqUAhAOxboA5ydj2yLiHH6/h8tCXTn62Famo0iKJOtZTmlcAs6vGFMtl6wZgKFJ3LaIOEAg4OHya7vR96gWpqOIS6RpCfCSGFOTsmFLhUOx5sBlVm9XRJwjI8PLnwf3oFef5qajiMskSkCx6RipdlnF2GqpZJylDwKyk7BdEXGAzEwfoet70KOnnv6djlLxPoeNGwvSrQRkkxhbLWVpAQiHYgFgsJXbFBHnyMr2cW34MLp218M/JbnSsAQMrhhjLWP1DMAF6JW/ImkpJ9fHoCE96dilkekokibSrAS0JDHGWsbqAnC1xdsTEQfIzfMzeOjhHNohJW8xFTtL8Tud06wEWDrGWlYAwqFYB+CXVm1PRJyhQcMA19/Ui4PbNTAdRdJUGpWAX1aMtZawcgbgzyTvFlARsaFGjQPcMKIXbdom/c2lIgeUJiXAQ2KstYQlBaDijUVXWLEtEXGGJk0zuGFEb1q2yjEdRWwkxSsA+0iTEnCFVW8JtGoG4BygrUXbEhGba9Y8k/DI3jRvoTt+xV7SoAS0JTHm1ptVBSBk0XZExOZatEoM/k2aZpmOIjZkh3XgNCgBloy59S4A4VDsYGCABVnEJrxeD32Oakrrtjq7k321bptNeEQfGjXONB1F5IA2bXJ1CRhQMfbWi9+CIFcClqxHiFler4feRzTh7AsOpVWbXEpKyvnXC98ze8ZG09HEBg46JIfBw3qRm2vps0hEkiIeT5QAaEhOTobpOFbzkRh776zPRjzxeLzOXw6HYl5gKdCuPiHErP0H/v1Nm7KGt/+1lOLicgPpxA4OaZ/L4KG9yM624pxB3Oz2m6fx9ZfrTcfYw+OBZs1cWQJWAB0i0WCdD8z1/dN8Jhr8Hau6gX+3E05qw6EdGvDskwvZsG5nChOKHbTvmMegob3IzNREnziPi2cC2pEYgz+q6wbqWwAuref3xYCaDvx7O+jgPG669QhefvY7vp6zOckJxS46dW3AwHAvAhl6u7c4l4tLwKXUowDUeQkgHIplA+uBvLruXFKrLgN/ZT7/7Efee2M5pSV1Xz4S++vaoyHX3HA4fr8Gf6m5O26Zxtw59lkC2JsLlwMKgZaRaHBHXb5cnxmAs9Hg7whWDfy7nfKLg+nQsRHP/mMBmze69irbtHZYr0ZcNagnPg3+4iIunAnIIzEWv1mXL9enAFxcj+9KClg98O+tXfsGjLjtSF58eiHz5+Vbum0xq9cRTbjy2sPweu1wR7eItVxYAi6mjgWgTksA4VAsl8T0v54BakPJHPgr88lHKxj/zkrKy7Qk4HRHHNOUy0I98Jh8nqs42p2jp/HVbHsuAezNRcsBRSSWAbbX9ot1nQE4Fw3+tpPqgX+3X/ZvR8dOjXguupCtW0pStl+x1jHHN+cPV3Q3+ix3kVRx0UxADokx+bXafrGuBUDT/zZiauDfW8cujRg59kief2oB331bYCSD1N3xJ7Xk95d2NR1DJKVcVAIupg4FoNZLAOFQrAGJ6X89CNwwOwz8lfnw/WV8/J9VlJdrScAJTvpFa35zSWfTMcQl7hw9na9mrzMdo1ZcsBywk8QywLbafKkuMwDno8HfKLsO/LsNOK89nbo04oXo92wr0JKAnf3irDZc8JtOpmOIGOWCmYAsEmPzy7X5Ul0KgKb/DbH7wL+3rt2bMGLsETz35Lf8sKjQdBypxJnnHsQ5F3QwHUPEFlxQAi6mlgWgVksA4VCsEYnpf0f+7jhZh84NuOTSzrYf+PcXj8P7by1h4sdrtCRgI2f/6hDOOudQ0zHEhe4aM50vZzlrCWBvDl4OKCaxDLC1pl+o7VM+foUGfyN69GzsuMEfEn+Yzv91R666rjs5uXqRjGkeD1zw20M1+ItUYfdMgANfJZxBYoyusdoWgPNr+XmxiNPPnXv2asbIsUfQroPzSoxbeDxw0e878IszDzEdRVzMDbeROrgE1GqMrnEBCIdifuCXtY4jUqFxk0yGjOrLyae3csVBwkm8Xg+/+1MnTv7FQaajiDiCQ0vALyvG6hqpzQzACUDD2ucRS9TxpU124/V6+PXvu3D5td3IztGSQCp4vR4uubwTJ5zUxnQUEUdxYAloSGKsrpHaFID+tc8iUrm+R7Zg+Jg+HHSIHiiZTD6fh0tDXeh3fGvTUSRtuGt6z4EloMZjtQqAQ7jj/H9fzVtkM+yWvpxwckvTUVzJH/Bw+TVdOeJo/f6K1IfDSoC1BSAcirUG+tY5jkgVfH4vF/+pK3+6qguZmT7TcVwjkOHlyoHd6X1EC9NRRFzBQSWgb8WYXa2azgCchdvmdZzGjVMAezn62FYMG9OH1m2zTUdxvIxML6HretCzVzPTUSQNufkCX4eUAA+JMbtaNS0Amv43LO72BgC0ap3D8DFHcMzxzU1HcaysLB/X3HAY3Xo0MR1FxJV2l4AdO2xdAmo0ZldbAMKhmBc4s95xRGogEPDyxyu7c/GlncjIqO1jKtJbTo6PgUN60rlrY9NRRFwtHoeNG21dAs6sGLsPqCZH2H5A0/rnkfpwyV2ANXbCSW0YcnNvWrTSe6dqIifXz6Chh9O+o+7UFbPcvASwN5uXgKYkxu4DqkkBGFD/LCK11/bgPEbcdgR9j1L/PJAGDQNcP/xwDjm0gekoImnF5iWg2rG7JgVA6/92kGYzALtlZPi44trD+PUlHfAH0uTUohYaNkoM/m0PzjMdRSQt2bgEVDt2H7AAhEOxhsDRlsWROkvT8X+Pk39xEOERvWnaLNN0FNto3CTADSN6O/IlUeJe6bIEsDebloCjK8bwKlU3A3B8DT4jkhLt2jdg5Ngj6NlHF7k1bZZJeGQfWrTUbZMidmDDEuAlMYYf8AMHcqJ1WaRe0u0qwCpkZfu5+rrDOe/X7fD50vBUA2jeMovwqN40baYLJEXsxIYl4IBjeHUFIGhhEBHL/LJ/O64bfjiNmgRMR0mplq2zCI/sTePGWgoRu0rPYr6bzUrAAcfwKgtAxSsFj7U8jtRJPJ7ef6gq07FzI0aOPZJuh6XHrW9tDsomPLIPDRtmmI4iIgdgoxJw7IFeD3ygGYAjAL2qzSbS4UmAdZGbG2DQkN70P/9gvF73lqSD2+UQHtGHvLz0mvEQ50nHiwArY5MSkENiLK/UgQqA1v/FMQac156BQw6jQUP3DZDtOuRy/U19yM6pssiLiA3ZpARUOZYfqABo/d9ONAFQra7dmzBi7BF06uqeB+J07NKA64f3JitLb0oUcSIblIAqx3LNAIirNGyYwfXD+3D6gLaOXxLo0r0hg4b0IiNDg78Jcd15UydaAvg5wyWgdjMA4VCsE1Cj9wmL2I3HA+df1JGrrutObp4zp82792zEwPDhBAJ6DIcJE8YvY/w7S0zHEBcxWAJaV4zpP1PV0UVn/+J4PXs1Y8RtR9Cug7OelHd438Zcff3h+Pwa/FNtx45SHh43iyf/MpfiknLTccRlDJaASsf0qo4wWv+3GU1H1k3jJpkMGdWXU37Z2hFTk32PaspVg3qm7UOOTFqyOJ9hgyYS+3yV6SgOp/92D8RQCah0TK+qABzw8YGSehr/687r9XDRxZ254tpu5OTYdz39qGObcfk1h+FxQlNxmQ/fW8KoGyezZvV201EkDRgoAZWO6T8rAOFQLAPonvQ4IinW58gWDL+1LwcdYr/HWxx7YgsuvaqHI2Yp3KRoewkP3DWTpx6fR4mm/CWFUlwCuleM7fuobAagB+DMK6dEqtGseTbDbunLCSe3NB1lj+Cprfi/y7uZjpF2Fn+/haGDJjI9ttp0FFdRx3YUPgAAIABJREFUia25FJYAP4mxfR+VFYDeyU4iYpLP7+XiP3XlT1d1IdPw/fWnntGG3/6hi9EM6ej9t39g1JAprFtbZDqKpLkUloCfje2VnemrANiQrgGw3tHHtqJd+wb884kFrF29I+X7P+Pstpx7YceU7zedFRaW8NeH5jBz+lrTUUT22F0CmjdvSHZ20t718bOxvbIZgF7J2rvUne4CSI6WrXIYPuYIjjm+eUr3O+D8gzX4p9h3CzYzdOBnGvyTTEsAdZOCmYCfje1aApC0Fwh4+eOV3fn9ZZ3IyEjuvfceD5z363b0P699UvcjP4nH4Z1/L2L0sClsWJ/6mR6RmkpyCTjwDEA4FGsOtEnGnkXs7vhgG4bc3JsWrTKTsn2PBy68uD2/7N8uKduXnyvYWsw9t03n+afnU1amWTSxvySWgDYVY/we+5/u6Oxf0lrbg/MYcduR9D26qaXb9Xo9/PYPHTnl9IMt3a5U7dv/bWLooM+YM3Od6SjpRWsA9ZbEErDPGL9/AdD6v6S9jAwfV1xzGL++pAP+QP0PZl6vh99f1okTT2lrQTqpTjwOb7z6PbfeFGPTxp2m44jUSZJKwD5j/P53AWgGQKTCyb84iA6dGvLM3xeyedOuOm3D6/Pwxys6c9SxrSxOJ5XZmr+Lxx6Yw9w5601HSVs6/7dOEu4OOOAMgAqATekuADMOObQBI8ceQc8+jWv9Xb/fw2VXd9XgnyL/m7eRIQMnavAXV7F4JqDyAhAOxbxATyv2INaLx9WrTcnK9nP1dYdz/m/a1fglPYGAhyuu7UbfI1skOZ3E43Fee2kht42YypbNmvIX97GwBPSsGOuBfZcA2gHZ9d26iFudflY7OnRqxPNPLSR/S0mVnwtkeLlqUHe697T2QkL5ufwtO3nkvjl8M3eD6ShSQdcAJodFywHZJMb6ZbDvEkD7eqWTJNMSgB107NyIEWOPpNthjSr995lZPq65oYcG/xT4+sv1DBk4UYO/pA2LZgLa7/7F3gWgQ322KJIucnMDDBrSiwHnH4zX+9PpTnaOn4E3HkaXbk0MpnO/8vI4Lz+3gDtumU7+lrpdnCniVBaUgD1j/d5LAO3rE0qSS9cA2k//89rTsUsjXnz6e0pLyxl4Y0/atW9gOparbdq4k0fvm8X8bzaZjiJV0RpA0tVzOaD97l/sXQA0A2BnKgC21LV7E0bcdgSFhSW0aZtrOo6rfTlrHZEH51CwNSXvTxextXqUgD1jva4BkDqZ9OlKtuZr+hWgQcMMDf5JVFYW58V/zufuW6dr8BfZSx2XA9rv/oWuAXAIu00ALFmUz81DJrNuzXbTUcTFNm7YwZjhU3jr9UVaBnMIrQCkVh1KwL4zAOFQLAPQc0qlVtas3s6oIZNZsnir6SjiQrNmrGXIwIks/Haz6SgitlbLEtC2YszfMwNwCJW/Glhswq5PAszfsotbb5qiW7HEMmWl5Tz71P8YN3YGhds05S9SE7UoAV4SY/6eQV/T/1JnRUWl3Dl6OlMnrzIdRRxu/boibh46hffeXGw6itSRVgDMqUUJ6AA/FYD2yQwlFrDnBMAepaXlPDxuNh+8t8R0FHGoGVPXMHTQRBZ9t8V0FBHHqmEJaA8/3QaoGQCpt3g8TvTxeWzZvIs/XN7DdBxxiNLScp576n+Mf1flUcQKNbhFsAP8VADapyqYuN8br35H/padDAz33edJeSL7W7tmOw/dM4sfFuWbjiJW0W0AtlBNCWgPPxWA1qkMJrVn02sAq/TJR8vZmr+L4bccQ0amz3QcsaGpk1fxxKNfUVRUajqKiCsdoAS0hp+uAWiW8mTierNmrGXszdMoLKz6zXmSfkqKy3jyL1/z0D2zNPi7kCYA7KWKawKagQqAY8TtfhVgFRbO38QtQyazaeMO01HEBlb/WMiI8GQmjF9qOopI2qikBKgAOIozx38AVq7YxqgbJ7NyxTbTUcSgyZ+tZNh1k1i2RA+OEkm1/UpAogCEQ7FsINtoMnG9jRt2cMvQKXqqWxoq3lXG449+xaP3z2HnDk35u51WAOxrrxKQHQ7Fsr3o7N8RnHYRYGUKtxUzdtRUZn+x1nQUSZEfV2zjphs+55OPlpuOIiL8VALy87f3VgGQlCreVca9t3/BpxM0ILjdxP+uYPh1k1ixrMB0FBHZSzwO8Xi8ox8VAIdwwRRAhfLyOH975Cvyt+zi17/vajqOWGznzjKe+utcJn6y0nQUMUB3ATiFp5UKgBjz0rPfsmXzTv48sBceHTVcYcWyAh68ZxY/6oJPEVvzeGihAuAQ8bg7B8jx7y5ha/4uwiOOwu/XCymd7L8fLufpv8+jeFeZ6SgiUr3mKgAO4YaLAKsS+3wVBQXFjBp7LNnZ/uq/ILayY0cpT0bmMnnij6ajiB1oNs8pmuoiQLGFeV9tYMzwKeRv2WU6itTC0h+2MmzwJA3+Ig4Tj9NEBcAxXDwFUGHJ4q3cPGQya9dsNx1FauCj/yxlZPhz1qwqNB1FRGqvkRfINZ1CZLe1a7Yz6sbJLFmst8PZVVFRKQ/eM4t//PVrSkrKTccRm9EKgDPE4/EcL5BpOojI3rbm72LM8Bhff7XBdBTZzw+L8hk6aCLTJq8yHUVE6ifDC/zsRcFiP26+CLAyO3aUcveY6cQmaW3ZLsa/8wOjbpzMOi3RiDhePB7P8KMZALGp0tJyHrlvNlvzd3HOrzqZjpO2theW8LdHvmTG1DWmo4gDaAXAGVQAHCSeblMAFeJxePrv37B58y7+dOVhpuOkne8XbuHhcbNYv67IdBQRsVA8jt+PlgDEAd567Xu2btnJwBuPwOfTOUayxePw3luLefGZbykr1YV+Ugu6CtAR4vF4QDMA4hiffryC/PxibhpzDJmZPtNxXKtwWzGRB7/UWxtFXCwex6+7AMRR5sxcy9iRUyncVmw6iistnL+JIQMnavAXcbl4PO7TXQAOkaaXAFTquwWbuXnoFDZu2GE6imvE44llljE3xfT7KvWiFQBniMfjXs0AOIUKwD5+XLGNUTdOZsVyvXWuvgq27uKuMdMT6/1l+g9NJB3E4/hUAMSxNm3cweihk1k4f5PpKI41/5vElP9Xs9eZjiIiKRSPxz1aAnCIuKYAKlVYWMKsGWu1RFJHh7ZvQKcujU3HEBfREoAz7C4AmgEQR/J4PFw1qDd/+nNPHXTqKK9BBjfffhyXX304Pr/XdBwRSZHdBUAcQGe4+woEvAwffQznXNDRdBTH83jggl93ZtxDQVq0zDYdR0RSIB4HL6AXsIuj5OYFGHvviZxwUlvTUVyla4+mPPLEaRxzXGvTUcTRNB3nBB6PBy+gG6rFMZo1z2LcwyfRs1cz01FcKa9BBrfccRxXaElAxNU8HuKaAXAKLQFwSLsG3PfYKbRr39B0FNc7/9edGffwSbRomWM6iogkhwqAOEOPw5sx7tGTad5Ca9Sp0rV7Ex75+2n0O15LAlJzuiDXGTweT1xLAA6RzhMAx53YljvuPYG8vIDpKGknLy/AzbdrSUDEhco1AyC2NuC8Doy49RgCGXr5j0laEpCa0gyAM+yeAVABcII0nAL4w+WHcfV1ffDoiGILPy0JtDEdRUTqr0xLAA6RTk8C9Pk8XD/sSH5zSVfTUWQ/iSWBY7niml5aEhBxMI9HSwBiM1lZPm654zh+cWY701HkAM6/qBP3PnISLVtpSUD2pxk7hyhTAXCIdHgSYMNGmdz1YJAjj2llOorUQJduTXjkidM49gQtCYg4jcfj0RKA2EOrNrnc99jJdO7axHQUqYXcvACjxh7LlddqSUDEYTQD4BgungHo1KUx9z16Mm3a5pqOInV03oVaEpAEXbPrDB6Pp8QLbDcdRKrn1vG/71EtufvBII2b6KWUTqclARHn8Hgo8gKbTAeR9HTq6Ycw5s7jyMr2m44iFtm9JPDna3vh15KAiG15PJ6tKgCO4a45gIt+14UbbjpK68Yude6Fnbj30ZNo1VpLAulGSwDO4PF4NqsASEp5PB6uGtSbP/25pw4ULte5axMefvw0jjtRSwIiduPxsFEFwCHccBtgIOBl+OhjOOeCjqajSIrk5gUYeduxXDVQSwIiduLxeNapAEhK5OYFGDvuBE44qa3pKGLAOb/qxL2PnqwlgXSgqT2nWK0C4BQOngFo1jyLcQ+fRM/ezU1HEYM6d21csSSgEihimsfDShUAh3Dq+H9Iuwbc99gptGvf0HQUsYHEkkA/LQmIGBaPs1wFQJKmx+HNGPfoyTRvkW06itjMniWBNnr4k9toAcAZysvjS7yRaHAHsMN0GKmGw64CPO7ENtxx7wnk5QVMRxGb6ty1MY88fqqWBEQMKCratW73HJxmAcQyA87rwIhb+xHI8JmOIjaXk1uxJDCot5YEXELXANqf1+spf3vCr+IqAA7hlAmAP1zeg6uv64NHRwGphXMu6Mh9j2lJQCQVvF5vCYAKgEPYffz3+TxcN+xIfnNJN9NRxKE6dUksCRwf1JKASDL5fJ7t8FMBWGswizhcVpaPW+44jtPPbGc6ijhcTm6AEbf2IzRYSwKOpdk/2/N6vZvhpwKwzFwUqRGbTgE0bJTJXQ8GOfKYVqajiIucfb6WBESSxev1rIKfCsBSg1nEoVq1yeW+x06mc9cmpqOIC+1eEtDTI0Ws5fF4fgDNADiG3S4C7NC5Mfc9ejJt2uoMTZInJzfATWP6cfXg3gQCWhJwAq0A2J/H45kPmgGQOjrtl4fQuEmm6Ri28d2CzaYjuNqAiiWB1loSEKk3j8czB34qACuBcnNxRJypaHsJ9985k1E3Tuat1xeZjuNqHTs35uEnTuOEkw8yHUXE0bxez2yoKACRaLAYWG00kVTDZmsAwpLFWxk2eBIzpib+6Lz4z/m89tJCw6ncLSfHz02jj+Hq6/poScCmtAJgbz6ft+zZ187Y5zZA0DKASI1NGL+MUTd+zto12/f5+b9eXMiLz3xrKFX6GHBeBy0JiNSB1+vdc9DauwAsS30UqSm7XQSYrnbuLOPR++fw5F/mUlJS+arZW699zzNPfpPiZOlHSwIitef1evZcsKQZAJEaWrF8G8Ovm8Tkz1ZW+9n33/6Bf/z1axW3JNOSgP3oLgB783o9e5b7NQMgUgMTP1nJiOsnsWrlthp/56P/LOXxR78irhaQdIklgVN0W6pINbxez56rlTUD4BAaQ8wo3lXG449+xV8enMOuXWW1/v6nE5bz2ANfUl6u/wOTrWPnRjz0+GmcqCUBkSp5vd45e36918+XpT6KiH2tWVXIyPDnfPLR8nptZ/JnK3l43CzKSnWnbbLl5PgZPvoYrrleSwLGaA3A1jIyfFN2/3rvPyErgB2pjyM1oWnk1Jo6eRXDBk9i2dICS7Y3bcpqHrh7ZpUXDoq1+p/bgfsjWhIQ2ZvP543n5mbN2/3PewpAJBosB+YbSSViE6Wl5UQfn8dD98xix45SS7c9c/pa7r19BsV1WEqQ2uvQqREPP3EawVO0JJBKOv+3L7/fW1gx1gP7zgAAzEMkTa1fV8TNQ6bwwXtLkraPr2av5+7bZrBzp0pAKmRn+xl2yzFce0MfAhk+03FEjPJ6vfvcwqQCIELi7HzYoIks/n5L0vf1zdwN3Dl6muUzDFK1s87pwP2PnUybg/JMRxExxufz7jPLv38B0NNLbEqXACRHWVmc55+ez313zKCwsCRl+13wv03cPmoq21O4z3TXoVMjHn78VIKnHmw6iqvpGkD78ng80/b+Z80ASNratHEnY26K8c6/FxkpWN8v3MJtI2NsKyhO/c7TVHa2n2E3H821N/TVkoCkHY/H88He/7xPAYhEgxuBNSlNJGLA3DnrGTpoIgvnbzKaY8nirdw6IsbW/F1Gc6Sbs85pzwMRLQlI+vB6veXP//vM7/f5WSWf0yyAHWkNwBLxeJxXX1jAnaOnU7DVHoPu8qUFjB4eY/OmnaajpJX2HbUkkBRaA7Alv9+bv//PKisAug5AXCl/yy7GjprG6y9/Z7vnKqxauY3Rw6awYb0exZFKu5cEBoa1JCDu5vV6V/zsZ5V8TjMANhTX3bX1Mn/eRoYOmsg3czeYjlKltWu2M3rYFNbt94phSb4zz04sCbQ9WEsC4k4+n2f2/j9TAXAIm52wOkY8Dm/+63tuGzmVLZvtP8W+YX0Ro4dPYfWPhaajpJ32HRvx8N9O5aTTtCRQH1oBsCefz/vR/j+rrAAsAHSDsjjetoJi7rltOi89+62jXsazaeNORg+PsWJ5zd88KNbIyvYzdFRiSSBD7xIQl/B4PGRlZYzf/+c/+y88Eg0WAwtTkkpqTlMAtfL9gs0MGzyROTPXmY5SJ/lbdnLrTVNYtmSr6Shp6cyz23POrzqajiFiiUDAt/0fL572synQqiru9CTnEUma99/+gVuGxxx/QV3B1mJuvSnG4u9/dvGupIBHc9l1ot81+/H7fT9U9vOqCkAsiVmkDnT+X72i7SXcf+dMnnnyG9e8erewsISxI2Ms/Haz6Sgi4lA+n3dyZT+vqgBMTWIWEcstWbyVYYMnMWPqatNRLFdUVModt0xj/ryNpqOIiAN5vZ7XK/15ZT+MRIM/AGuTmkhqR1MAVZowfimjbvyctS6+fW7njlLuHDOdr79cbzqKyIFp6cRWfD5v+XOvnzmlsn93oMtcNQtgIxr/f27njlIevW82T/7la0pK3DHlfyDFu8q457YZzJmpbi4iNeP3+6q8EvpABUDXAYhtrVi+jeHXf87kiT+ajpJSJSXl3HvHTGZM1Ss7xJ40AWAvPp/nq6r+nWYAHMJuj641aeJ/VzDi+kmsWpme98mXlZbz0D0ziU1Kr/IjIrXn8Xg+rOrf+Q/wva+AIiDH8kQidVC8q4ynHp/HpxOWm45iXFlZnEfvn0NJSTmnndHOdBwRsamSkrJXq/p3Vc4ARKLBUuCLpCSSWkv3WbXVPxYyMvy5Bv+9lJfH+evDX/LxB8tMRxHZQ0sA9hEI+Apee//cKt95Xt2zLnUdgE2k8wrA1MmrGH7dJJYtLTAdxXbicXjyL3MZ/+4S01FExGb8ft8B3+57oCUA0HUAYlBpaTnP/ON/fPieBrcDicfh6SfmUVJcxq9+28V0HBGxCb/f9/4B/301358OlFP9TIEkWbpNAKxfV8SDd8/UY3Br4fmn51NSUs5v/6+b6SiS1rQGYAcej4eMDP+zB/rMAQf2SDRYAPzsHcIiyTRz+lqGDpqowb8OXnl+AS8/t8B0DBExLBDwFTz9yukHfHJYdTMAAB8B/ayJJHWWBhcBlJXFeemZ+bzzxmLTURztjVe/o6S4jMuvPtx0FBExJBDwVXvyXpOp/SrvIZTUcfv4v2njDsbcFNPgb5F331zMU4/Pc/1/N2I/ugvAHrxe7yvVfaYmMwAzgc1A03onEqnEV7PX89gDsynYWmw6iqt8+N4SSkvKGBjuq1fbiqQRr9cTj8fjL1T7ueo+EIkGy4GPLUklspd4PM6rLyzgrjHTNfgnyX8/XM5fHvyS8nJNBYiki0DAv/rFN/uXVPe5mswAQOI6gN/XL5LIT/K37OKR+2bzzdwNpqO43qRPV1JSUs6QUUfj82kmQJJLk03m+XzeiTX5XE0LwAQSd6Lp/1pD3LSWO3/eRh4aN5v8LTtNR0kbUyevorS0nOGjj8Hv1129Ii73VE0+VKMjQSQaXAvMrVccSXvxOLzx6vfcNnKqBn8Dvpi2hvvu+IKS4jLTUUQkSXw+766X3x4wpSafrc2pwEd1zCMWcPoEwLaCYu6+dTovP/et1qMNmjNzHffcNoNdu1QCJFk0UWxSRoa/xifrKgAOkb95F3NmrjMdo06+X7CZoYMm8uUsZ+Z3m6+/2sBdo6exc0ep6SgiYjG/3/diTT9bmwIwDdDbWAwp2l7GP59YyMjwZGZ/sdZ0nBp7760fuGV4jI0bdpiOInuZ/80mbr95GkXbq71QWKRWdBGgOV6vN56Z6Y/W+PM1/WDF64E/qVMqsUQg4GPb1jj33TGTm66fZOsiULS9hPvv/IJn//ENZaXlpuNIJb5bsJnbRk6lcJtuwRRxg8xM//Loy6fX+A90bS8Hfq+WnxeLBQI+WrZsxNIfCrjnthkMv85+RWDJ4nyGDp7EjKlrTEeRavywKJ9bb4pRsHWX6SgiUk+BgO+d2ny+tgXgHUCnC4btLgE+n5cfFuXvKQKzZpgvAhPGL2XUjZNZt2a76ShSQ8uWFjBmeIwtm3VnhtSflgDM8Hg8BAL++2r1nXgtbzAPh2LvAefV6kuSFCUlZaxfv5Wysp+m2Dt1aczFf+zOMce1TmmWnTtKeSIylykTf0zpfsU6bQ7K464HTqRZ82zTUcTBXntpIf96caHpGGknMzOw5l/vndO2Nt+pyxNBXqvDdyQJ9p4J2O2HRfmMG5vaGYEVywoYfv3nGvwdbs2qQkYPm8L6dUWmo4hILfn9vndr+526FID3AM0V2kRlJQB+KgLDBk9i5vTkFYHPPl7BiBs+Z9XKbUnbh6TOurVFjB42hTWrtYQjdaMlADM8Hu6t9XdquwQAEA7F3gIurPUXJWkqWw7YW8fOiaWBfsdbszRQvKuMpx6fx6cTlluyPbGXJk2zuPP+Ezm4XQPTUcRhXn95Ia++oCWAVMrI8G947f1zW9b2e3V9KLiWAWymqpmA3ZYszufe262ZEVj9YyEjwp9r8HexLZt3MuamGMuX6tEfInbn99fu6v/d6loA/gNoodBmqisBUP8iEPt8FcOvm6SBIQ1szd/FmJtiLFmcbzqKOIrWAFLJ4/Hg9Xpur8t361QAItHgdmB8Xb4ryVWTEgB7F4GJzJxe/f36paXlPPW3r3l43Cx26BGyaaNwWzG3jZzK9ws2m44iIpXIyPD/+OKb/VfX5bv1eS+olgFsqqYlAGDJ4q3ce/sXBywC69YWcfOQyXz4/lKro4oDbC8s4fabp/Ht/zaZjiIi+8nI8L1c1+/WpwB8ABTW4/uSRLUpAVB1EZg5fQ3DBk9k8feaBk5nO3aUcuct05j31QbTUcTmdBdA6ni9nnhGRmBcXb9fp7sAdguHYq8Al9R5A5J01d0dUJWOnRvRsXNjPvlIF/rJTwIZPkbd1o8jj2llOorY1L9f+Y5Xnl9gOkZayM7OWPTKO2d3rev36zMDAPBCPb8vSVbbmYDdlizeqsFffqakuIx7b/+iRteNiEhyZWT4/16f79e3AHwMrKjnNiTJ6loCRCpTWlrOA3fNZNrkVaajiA1pCSA1/H5faaNGOZH6bKNeI0IkGiwH/lmfbUhqqASIlcrK4jx872w+/3Sl6SgiaSkjwz+lYgyuMytGg2eAMgu2I0mmEiBWKi+PE3nwSy0VyX40BZAKXq/n1npvo74biESDPwIf1nc7khoqAWKleDzOE499pVtERVIoEPBtefHN/lPrux2rRoGoRduRFFAJECvF4/DU377mvTcXm44ikhYCAf/zVmzHqhFgPFCnJxGJGSoBYrVnn/ofb/7re9MxxDBdBJhcXq+nPB6Pj7ZkW1ZsJBINlgHPWrEtSR2VALHaS89+qzfBiSRRZmbgi1feOduSd/FYeeT/J1D3pwqJESoBYrXXX17IC/+cbzqGiCsFAr6RVm3LsqN+JBpcCnxi1fYkdVQCxGpvv76Ip//+jekYYoCWAJInMzOw4fl/nzXFqu1ZfcR/yuLtSYqoBIjVxr/zA0/+ZS71eNq4iOwlM9Nv6QX3Vh/t3wXWW7xNSRGVALHahPHL+NsjX1Kfd46ICPj9vrLc3Kw7rNympUf6SDRYAjxu5TYltVQCxGqffbyCR++fQ1mZSkBa0BpAUmRmBj554rlTiq3cZjKO8k8AO5KwXUkRlQCx2pSJP/LQPbMoK63Xk0tF0pLH48Hv915v9XYtP8JHosGNgCUPKRBzVALEajOmrua+O2dSUqISIFIbmZn+hc+9fuYiq7ebrKP7I4D+lDucSoBYbfYXaxk3dgbFu/T6ELfSAoD1fD7fqGRsNylH9kg0uAh4LxnbltRSCRCrzZ2znrvGTGfnTpUAkepkZPjXv/RW/3eTse1kHtUfTuK2JYVUAsRq/5u3kTtumUZRUanpKCK2lpHhvydZ207aET0SDcaAL5K1fUktlQCx2sL5mxg7ciqFhSWmo4iFdBOAdQIBX+GLb/b/S7K2n+yj+UNJ3r6kkEqAWG3x91u4bUSMgq2W3t0k4gqZmYG/J3P7yT6Svw3oReEuohIgVlv6w1ZuvWkK+Vt2mY4iVtAUgCX8fl9JTk7mLcncR1KP4hVvCXw0mfuQ1FMJEKutWL6NMcOnsGnjTtNRRGwhKyvw73+8eFpSL5JJxRH8GWBLCvYjKaQSIFZb9WMho4dPYcN6S950KuJYPp+3PDMzcF2y95P0o3ckGtwOPJbs/UjqqQSI1dat2c7oYVNYu2a76ShSR1oBqL+srIz/Pv3K6Uk/cU7VkfsxYHOK9iUppBIgVtuwfgdjhk9h1Y+FpqOIpJzX64kHAr4rUrKvVOwkEg0WAA+kYl+SeioBYrVNG3cyZvgUViwrMB1FJKUyMwOfPfvaGWtSsa9UHrH/hl4V7FoqAWK1/C27uHVEjCWLt5qOIrWgFYC683o9cZ/Pe2nK9peqHVVcC3BfqvYnqacSIFYr2FrM2JExFn2n64jF/bKyMj548c3+q1O1v1Qfqf8OpOx/nKSeSoBYrbCwhNtHTWXh/E2mo4gkjdfrLfd6PZeldJ+p3FkkGtwJJO25xmIPKgFitaKiUu64ZRrffL3RdBSpjm4DqJPs7MCbL77ZP6Ut18QR+mlghYH9SgqpBIjVdu4s4+5bpzN3ji4lEnfx+bylfr/vylTvN+VH50g0WAzcler9SuqpBIjVineVMW7sDGbNWGs6iohlsrMzXnru9TNTft+rqSPzc8APhvYtKaQSIFYrKSnn/rtmMj2my4nsSCsAteP3+0oCAd/47CZQAAAWcklEQVS1JvZt5KgciQZLgTtM7FtSTyVArFZWWs7D42YxeeKPpqOI1Et2duCpZ/51hpE3YZk8Ir8MfG1w/5JCKgFitbKyOI/dP4fPPtYlRXaxa1cZK5dvMx3DMQIB347MzEDY1P498Xjc1L4Jh2KnAhONBZCUKykpY/36rZSVlZuOIi7h8cA11/fhrHM6mI6StlYs38bH45cy6dOVbC8sMR3HMXJzs0a99Fb/+03t32gBAAiHYm8CFxkNISmlEiDJ8Odre3HuhZ1Mx0gbJSXlTJ+yio/GL2PB//SMhtrKyPCvf+39c1uZzOA3ufMKw4FzgEzTQSQ1di8HqASIlf755DeUlJRz4e+6mI7iaqt/LOTjD5bx2X9XsK2g2HQcx8rI8P/RdAbjMwAA4VBsHHCz6RySWpoJkGS45NLu/O4P3U3HcJWy0nJmTFvDhPHL+N/XG7DBsOFo2dkZs1555+x+pnPYYQYAYBxwBdDadBBJHc0ESDK8+sJCiovL+eMVh5mO4njr1hYlzvY/Xk7+FiMXqruO1+st9/t9vzKdA2wyAwAQDsUuB541nUNSTzMBkgznX9SJK67pZTqG45SXx5k1Yy0Txi9l7pz1Otu3WG5u5rMvvTUg5U/9q4xdZgAAngcGA0ebDiKppZkASYb33vqBkpJyQoP76OE0NbBxww7+++FyPvloGZs37TQdx5UCAV9RPE7IdI7dbDMDABAOxU4EYqZziBmaCZBkOP2sQxk8pC8etYCficfjfDlrPRPGL2XOzHWUl9tnPHCjBg2yB77wxllPms6xm60KAEA4FHsV+L3pHGKGSoAkwymnH8INw4/E61UJANiyeSefTljOxx8sZ8P6ItNx0kJWVmDZq+/a62EVdloC2G0kcD6QYzqIpJ6WAyQZPv90JSUl5QwdeRQ+f3o+jTIeh3lfrWfC+GXMnL6GsjJ7nfy5mcfjITMz8DvTOfZnuxkAgHAoNhx40HQOMUczAZIM/Y5vzU1j+uFPoxJQsHUXn05YwccfLGPtmu2m46SlnJzMD15+e8A5pnPsz64FwAd8ARxlOouYU1paxrp1KgFirSOObsXNY/sRyPCZjpJU8+dt5KPxy5gRW01pqf4MmeL3+3ZkZvqbvvTWANtdWWnLAgAQDsX6ArOw5zKFpIhKgCRDr74tuOWO48jKclcJKCwsYeJ/VzBh/DJWrdRLeeygQYOsP77wRv+XTeeojG0LAEA4FLuPxDUBksZUAiQZDju8GWPuPp7sbOefY3y3YDMT/rOU2OTVlBSXmY4jFbKzM2a+8s7Zx5rOURW7F4AsYB6gh3unOZUASYau3Ztw2z0nkJsXMB2l1oqKSvn805VMGL+U5UsLTMeR/fh83pKcnMzWL7xx1mbTWapi6wIAe14Z/Bmg+3fSnEqAJEPHzo25/d4TaNAww3SUGln8fT4ff7CUKRN/ZOdOne3bVV5e1rAX3+z/iOkcB2L7AgAQDsWiwFWmc4h5KgGSDId2aMgd951Io8b2fCnpzp1lTJm4kgnjl/HDonzTcaQaWVkZ37/67tndTOeojlMWv24i8crgNqaDiFl+v49WrRqpBIilli8tYPTwGHc9cCJNmmaZjrPHsqUFTPjPUiZ/tpKiolLTcaQGfD5veWam/0zTOWrCETMAAOFQ7CLgTdM5xB40EyDJ0KZtLnc+EKR5i2xjGYp3lTF18io+Gr+M7xfYdvlYqpCXl/Xgi2/2H2E6R004pgAAhEOxt4ALTecQe1AJkGRo2SqHOx8I0qp1ah9G+uOKbUz4YBmT/ruCwsKSlO5brJGZGVj9r/fOOch0jppyyhLAboOAk4DmpoOIeVoOkGRYv66I0cOmcNcDJ9LmoLyk7qu0tJzpU1YzYfxS5n+zKan7kuTyej3xzMzAANM5asNRMwAA4VDsfOBd0znEPjQTIMnQuEkWdz5wIoe0a2D5ttes3s7HHyzjs4+XU7C12PLtS+rl5WXd++Kb/W8xnaM2HFcAAMKh2JPANaZziH2oBEgyNGyUyR33nUD7jo3qva2y0nK+mL6Wj8cvZd7cDTjw0CtVyMrKWPDqu2cfZjpHbTltCWC3ocCpgO1vs5DU0HKAJEPB1l3cOmIqY8edQOeujeu0jQ3ri/j4g2V88tEK8rfY7nHwUk9+v684M9N/sukcdeHIGQCAcCh2JDADcN4jvCRpNBMgyZCTG+C2e46nW4+mNfp8eXmc2V+sY8L4pXw1ez1OPc7KgXk8kJeX/ccX3jjLls/6r45jCwBAOBQbAdxvOofYi0qAJENWtp8xdx1Pz17NqvzMpo07+eSjZfz3w+Vs2rgjhenEhJyczA9ffnvA2aZz1JXTC4AX+AQ4zXQWsReVAEmGzEwfN99xHH2OaLHnZ/F4nLlz1vPRf5Yx+4u1lJc795gqNZeR4c/Pzs5o8dzrZzr2CU2OLgAA4VDsYBIvDGpiOovYi0qAJEMgw8fIW/vRqUtjPp2wnI8/WMb6dUWmY0kKeb2eeF5e1nHP//usmaaz1IfjCwBAOBT7LfC66RxiPyoBkgw+vxdIXNkv6ScvL+vRF9/sP9R0jvpyRQEACIdizwKXm84h9qMSICJWycoKLH713XNc8Yp6r+kAFroeWGA6hNjP7lsEfT43/ecuIqkWCPh2ZWdnnGA6h1Vcc0SMRIOFJN4TUGA6i9iPSoCI1IfX64nn5GSe98y/zthgOotVXHU0jESD3wGXAe5Y1xBLqQSISF3l5maOe+71M/9rOoeVXHMNwN7Codg44GbTOcSedE2AiNRGTk7m1JffHhA0ncNqbj0VGgN8bDqE2JNmAkSkpjIy/JsCAd+ppnMkgyuPgJFosBz4P2C56SxiTyoBIlIdn89bmpWVcbyTH/ZzIK49+kWiwU3ARYDeviGVUgkQkap4PB5ycjIvf/7fZy4ynSVZXH3ki0SDXwIDTecQ+1IJEJHK5ORkPOvUl/zUlCsvAtxfOBR7AhUBOQBdGCgiu2VlZXz76rtn9zSdI9nS5bTnRmC66RBiX5oJEBGAjAz/1qysQD/TOVIhLY52kWiwmMRDgpYZjiI2phIgkt78fl9Jbm5mv2dfO2O76SypkDZHukg0uA44G8g3nUXsSyVAJD15vZ54bm7muc/864zvTWdJlbQ6ykWiwQUk7gwoMZ1F7EslQCS9eDwe8vL+v717j7GjquMA/p1z5szMnbsLFAhWROQRgsQIKAQD3EiR9t67VLCAgg/e7KCoyeCDRyAEJCIgolwiityW7pPS3e5uQAWhUcCMBHwhGCJqFBRSeVuwlFLaXf+4l9BS2t3t7r2/MzPfTzK5/fObNJnz3XPmnBOc3zNUztX5Mbl7w9XqpfsAdEvnILuxBBDlR7Ho39w7XLlROke75WIXwLuJo+QKAJcLxyDLcXcAUbaFof/A4FjXPOkcEnJbAAAgjpI+AKdJ5yC7sQQQZVMQmCeX3bFwH+kcUvI+v9kN4H7pEGQ3LgcQZY8x7iue5x4knUNSrt9om2wP/It0FrIbSwBRdriuXh8E7iG9w5X/SWeRlPu3Wa1eWg1gIYDnpbOQ3VgCiNJPa7WxWPSP7ltR/Yd0Fml8kwGo1UtPonFGwKvSWchuLAFE6aWUmujsLJzcM1R+UDqLDfgWa6rVS39AYyZgrXQWshtLAFH6KOVMdHYG3UuXLxiVzmILvsE2UauXEgCLALwhnYXsxhJAlB7Ng34u6Bkq3yqdxSZ8e71DrV5aCeAUABuks5DdWAKI0qGjw7+qd7hyvXQO2+T6HIBtiaPkcwAGwJJEk+A5AUT2KhaDHw2MVr8incNGLADbEEdJN4BbADjSWchuLAFE9glDf9ngWNfnpXPYigVgEnGUnA/gB9I5yH4sAUT2CEPv7sGxY4+VzmEzTm9PolYv3QDgMukcZD9+E0BkhzD0f8nBf3KcAZiiOEquBXChdA6yH2cCiOQUi8GvB0arR0nnSAP+qTJFtXrpIgDflc5B9uNMAJGMjo7gfg7+U8c31DQ0SwCXA2hSLAFE7VUsBnf3j1SPls6RJnw7TVOtXvo2gK8B4NoJbRNLAFF7FIv+6MBolWv+08Q303Zofhh4LgAu8tI2sQQQtVax6A8OjHadJJ0jjfhW2k61emkxgFPBEwNpEiwBRK0Rhv7igdGuU6VzpBXfSDNQq5eWAfg0eHcATYIlgGh2haF/4+BYVySdI834NpqhWr10B4DjwFsEaRIsAUQz17zY57LBsa5YOkva8RyAWRJHSQnAzwHsIJ2F7MZzAoi2j1LOREdHcF7vcOUn0lmygAVgFsVRcgiAuwDsJp2F7MYSQDQ9WquNnZ2Fk5cuXzAqnSUrWABmWRwle6MxE3CAdBayG0sA0dQYo9cVi8G8pcsXPCydJUtYAFogjpKdAIwBmCcchSzHEkC0bZ7n/jcMvYOWLi8/LZ0la/g1UgvU6qXVACoA+qWzkN34YSDR1vm+eapQ8Pbk4N8anAFosThKrgBwuXAMshxnAog2FwTeQ+vWrT9i7J5FHKRahAWgDeIoOR3AYgBGOgvZiyWAqCEM/YHBsa7TpHNkHecd26BWL/WhsSSwWjoL2YvLAZR3zW1+F3Dwbw/OALRRHCUHoLFNcC/hKGQxzgRQHrmufrNY9I/vGSr/QjpLXrAAtFkcJe9BY4fA4dJZyF4sAZQnvm9WF4v+YUuWzf+7dJY84Vxjm9XqpefQ2B74Y+EoZDEuB1BehKH3aGdnsDsH//bjDICgOErORKMIBMJRyFKcCaCschwgDIMlA6PVbuksecUCICyOko8CGAXwAeksZCeWAMoapdTGMPSi/pHqUuksecYCYIE4SnYBcBuAsnQWshNLAGWFMfoVz3M/PjDa9Zh0lrzjAqMFavXSSwC6AFwNgI2MtsBvAigLCgXvt1rr93DwtwNnACwTR8kiAL3gtcL0LjgTQGmklDMRhv41/SPVS6Sz0NtYACwUR8n+aGwV5I2CtAWWAEoTz3NfD0Nv4dLl5fuks9DmOJ9ooVq99FcAhwHoEY5CFuJyAKVFGPqP77hj+D4O/nbiDIDl4ij5DICfAJgjnYXswpkAspVSzkSxGFzXt6JykXQW2joWgBSIo2QPAH0AjpbOQnZhCSDbGKNfDQKv0rei8pB0Fto2ziGmQK1eegbAfAAXAXhTOA5ZhMsBZJNCwfuV1no3Dv7pwBmAlGkeHHQbgP2ls5A9OBNAklxXrw8Cc27/SLVXOgtNHQtACsVREgL4PoAvSmche7AEkIRCwXvc89x5PUPlF6Wz0PSwAKRYHCXHA1gCYFfpLGQHlgBqF63VeLHof6t3uHKldBbaPiwAKRdHyVwAPwJwgnQWsgNLALVaEJinw9Cfv2TZ/L9JZ6HtxwKQEXGUnAjghwDeK52F5LEEUCso5YyHoX99/0j1QuksNHMsABkSR8lOAK4DcA4ARzgOCWMJoNnk++6/jHHL/SNV/tWfESwAGRRHyTwAtwDYTzgKCWMJoJnSWm0IAnP5wGjXd6Sz0OxiAcioOEoCAFcA+AYAVzYNSWIJoO1VKHgPa60W9o9UX5LOQrOPBSDj4ig5GMBiAIdIZyE5LAE0HZ7nrgkCc3bvcGVYOgu1Do8Py7havfQnAB8DcAGAtcJxSAhPDKSpUMqZ6OgIVuy0U3EOB//s4wxAjsRRsieAawF8VjoLyeBMAG1NEHhPFQrmxFtvX/CIdBZqDxaAHIqj5EgANwA4VDoLtR9LAG3KdfXrQWAu6B+p3iSdhdqLBSCn4ihxAJwB4GoAc4XjUJuxBJBSarxQMP0bNox3337nwg3Seaj9WAByLo6SDgCXAPg6AF84DrURS0A+OY6DQsF70HXVSb3DlWel85AcFgACAMRRsjeA7wE4UToLtQ9LQL4EgXna983neobKv5HOQvJYAGgzzUOEbgBwkHAUahOWgOzzPPe1IPC+2Ttcvlk6C9mDBYC2EEeJAvAFAJcD2Fc4DrUBS0A2ua56s1Dwb54zp3h+rV7ify5thgWAtiqOEhfAmQAuA7CnbBpqNZaA7NBabfR9M6SU090/UuX5H/SuWABoUnGUeAC6AVwKYHfhONRCLAHpprXaGARmVCmnu29F9VXpPGQ3FgCasub9AucBuBjAbsJxqEVYAtJHazUeBOZO19Vn9QyVV0vnoXRgAaBpi6OkCOCrAC4EsLNwHGoBloB0aA78dxnjnrV0+YIXpfNQurAA0HaLo2QHAOc3nznCcWiWsQTYqzHweyt93z1jybL5z0nnoXRiAaAZa84InI1GEdhHOA7NIpYAu2itNjSn+r/UM1R+QToPpRsLAM2aOEo0gBMAfBONGwgpA1gC5BmjX/N9c4vW6uKeofJ66TyUDSwA1BJxlJQAfAPA8eC106nHEiDD981/PM+9qm9FhRf10KxjAaCWiqNkPzTuGTgDQEE4Ds0AS0B7OI6DIDCPG6O/1jtcWSmdh7KLBYDaIo6SXQF8GcBXwC2EqcUS0DpKqfEgMPcbo8/rGSr/TToPZR8LALVVHCUGwKcAnAtgPgBHNhFNF0vA7PI892XPc/sAXNY/Ul0jnYfygwWAxDRvIDwHwFngCYOpwhIwM42jet2HXFdf2jtceUA6D+UTCwCJa+4eWAggAtAFQMsmoqlgCZg+3zfPGaMXa62u5Nf8JI0FgKwSR8keaJwpcA54AZH1WAImp7Xa4PvmAdfVF/cOl38vnYfoLSwAZKXmlcRlAKcDOA5Ah2wi2hqWgC0p5Uz4vnnSdXXd993r6oPHbJTORPROLABkvThKCgCOBXAKGksFoWwieieWgMb2Pd93/22Me5sx+poly+a/Ip2JaFtYAChVmscOfxKNMtAFIJBNRG/JYwlwHAee564yRg9rra7i8byUJiwAlFpxlHSicdLgKQAqADzZRJSXEuB57vPGuGNaO1f2DldWSech2h4sAJQJcZTsCGARGoVgPoAdZBPlVxZLgFLOhOe5z7iu/rnjONf2rag8JZ2JaKZYAChz4ihxARwBoNp8DgYPHGqrLJQAY/RaY9xHXFcNeJ57a33wGG7bo0xhAaDMi6NkLhpLBFU0dhbsLJsoH9JWApRyJoxxn3Fdfa/W6sbe4fJj0pmIWokFgHKlub3wMDQ+IKwCOBS8rbBlbC4BjuPAGP2q6+pHlHKWj49PLBkc6+Jf+ZQbLACUa3GU7ADgcABHAigB+Bi4zXBW2VICGl/s65ddVz+qtf6Z77t9twx84kXRUESCWACINtH8fuAjeLsQHAlgrmioDJAoAUo548a4z2mtfqe1GlXKWd4zVF7XtgBElmMBIJpEHCX74u1CcDiADwJwRUOlUCtLgFIOjNGvaa3/qZTzIICxNWvWrRy7Z5F9aw9ElmABIJqmOEo8AAcAOLD5fLj5+17JXGkwGyVAKTVujHpZa/0PrdVvtVb3hqG38qalR70xi1GJMo8FgGiWxFGyKzYvBAcC+BCAgmQu20y1BGitJrRWa7RWqxzH+avjOA87Dn7aP1L9c5uiEmUaCwBRCzV3HewJYC8Ae7/L7+7I4S6Et0rAxMTEuNZ6jdbOC1qrfyulntDa+aPnmQeDwDxRq5c4hU/UIiwARIKaywnvx5blYC6AXTZ50jaL8DqAlzZ5ngXwFIAn3/pdu/aNVfXBY16XCkiUdywARCnQvBFxl0meIgAfjTsR/Cn+GwDeALC++TuVf7+GzQf3LZ5avcSBnchy/wcEwM28EGUY/AAAAABJRU5ErkJggg==;" vertex="1" parent="1">
          <mxGeometry x="225" y="906" width="32" height="32" as="geometry" />
        </mxCell>
        <mxCell id="g2giiAnqPQ5w9crpu-lO-4" value="Git Repo" style="shape=image;verticalLabelPosition=bottom;labelBackgroundColor=default;verticalAlign=top;aspect=fixed;imageAspect=0;image=data:image/png,iVBORw0KGgoAAAANSUhEUgAAAMAAAAC7CAYAAAAzOZEFAAABRmlDQ1BJQ0MgUHJvZmlsZQAAKJFjYGASSSwoyGFhYGDIzSspCnJ3UoiIjFJgf87AySDBwM2gx8CZmFxc4BgQ4ANUwgCjUcG3awyMIPqyLsgs4Y3ZW5RXXXdayKO7WDk4zwBTPQrgSkktTgbSf4A4LbmgqISBgTEFyFYuLykAsTuAbJEioKOA7DkgdjqEvQHEToKwj4DVhAQ5A9k3gGyB5IxEoBmML4BsnSQk8XQkNtReEOAxclHwcFHwcVcICSPgXNJBSWpFCYh2zi+oLMpMzyhRcASGUqqCZ16yno6CkYGRMQMDKMwhqj/fAIcloxgHQqyggYHByoOBgTkPIRbbzsCwYT4DA38tQkzjPAODqBQDwwGngsSiRLgDGL+xFKcZG0HY3NsZGFin/f//OZyBgV2TgeHv9f//f2/////vMqD5t4B6vwEAYP5dr4ooqT0AAABiZVhJZk1NACoAAAAIAAIBEgADAAAAAQABAACHaQAEAAAAAQAAACYAAAAAAAOShgAHAAAAEgAAAFCgAgAEAAAAAQAAAMCgAwAEAAAAAQAAALsAAAAAQVNDSUkAAABTY3JlZW5zaG90h7QglQAAAj1pVFh0WE1MOmNvbS5hZG9iZS54bXAAAAAAADx4OnhtcG1ldGEgeG1sbnM6eD0iYWRvYmU6bnM6bWV0YS8iIHg6eG1wdGs9IlhNUCBDb3JlIDUuNC4wIj4KICAgPHJkZjpSREYgeG1sbnM6cmRmPSJodHRwOi8vd3d3LnczLm9yZy8xOTk5LzAyLzIyLXJkZi1zeW50YXgtbnMjIj4KICAgICAgPHJkZjpEZXNjcmlwdGlvbiByZGY6YWJvdXQ9IiIKICAgICAgICAgICAgeG1sbnM6ZXhpZj0iaHR0cDovL25zLmFkb2JlLmNvbS9leGlmLzEuMC8iCiAgICAgICAgICAgIHhtbG5zOnRpZmY9Imh0dHA6Ly9ucy5hZG9iZS5jb20vdGlmZi8xLjAvIj4KICAgICAgICAgPGV4aWY6VXNlckNvbW1lbnQ+U2NyZWVuc2hvdDwvZXhpZjpVc2VyQ29tbWVudD4KICAgICAgICAgPGV4aWY6UGl4ZWxYRGltZW5zaW9uPjE5MjwvZXhpZjpQaXhlbFhEaW1lbnNpb24+CiAgICAgICAgIDxleGlmOlBpeGVsWURpbWVuc2lvbj4xODc8L2V4aWY6UGl4ZWxZRGltZW5zaW9uPgogICAgICAgICA8dGlmZjpPcmllbnRhdGlvbj4xPC90aWZmOk9yaWVudGF0aW9uPgogICAgICA8L3JkZjpEZXNjcmlwdGlvbj4KICAgPC9yZGY6UkRGPgo8L3g6eG1wbWV0YT4KtSt/sgAAIDhJREFUeAHtXQmUHVWZ/l919+stCRA2SQj7EBjUM+IhjgSBMzrgzAkgCgSQEA9BQInsEwjIvpqExQVFFEVQtswAM2RcBhEURTEOGTEaUZAdDIRgkk6/7tdvmf/7693i9eu31P5u1bv3nO6qV3Xr1q3/3v/ef/8zM3bapUyVcuWVV9DcY45WP83RLwTG8jT6xGM0+uBdVFz1K7uVbD9RNju+xdEclTdvpMzU7Sl72FzKHnwo9czcZ3wd8ysUCOw5c29p540Dzx/XXrf69e1v3UazZ++vfpqjTwiUN22k4fvuoPw9txIVi0STtmjcUm8/ZfiPCmOUv/tWKvziERpYeD71zDqw8TPmTjgQ4GV/CyqThdaw8pvJHxyupbfepKGvXEf5O79C1NNLNDDJXaPdPYIopVdeoOElF9PID//L3XOmln8IjI7R1Ue9n6x93/c+Q/b4B6PzpKz8376ZCg//J0/8yUSWrC3OfVcnjDCloU2U+8rVBglcASxApZJN+Xcf+fEjA7RiHgUEsPJvvnkJjf333ZTZdnowoGA3YJIod90iOfbN+USw9szTTSHQ/YEPzGpawdxsDgGs/EM3XE6FR1cEn/zqVUCCvgHK3XCJjQQfO1bdMceQIWDtOD3gihVyh5LUnEx+pvll8rMkJ9QCJMj2Uu7maww5FCpgxzfWzWX8FfPLFQSE7Ln1RqH5IcaMpAAJuIAnAFlkyKHwoWxmvw+YKpq/8Nj3hVTx0YT7RxRPcMsSecYggXvQuanpQ1Thptn01lGTHwyviDn9SHu8gkchwbKLDDnkFXYt6hsEaAGg6tvVkz+wtKe6YTfnQAIwxksW08iK/3DzhKnjAgKGBHIBJFQBw7sZNP9PHgpP2uPy3U61ap6Az/s+erhzy5z4g4DZAVzATSb/12/gyb/CVnK5eCayKlVIYDTGwaFsdoAWMATZAzl/8Rc/bm7X06KdUG8DCaAsu+FSopFh6jN6At/gNTtAE9ApJZdWk1/1F0hgZWw9geEJFFQ8Hw0CNACZMLwge378oD4rf21fgQRd3ZQz0qFayLj+bUigOqCSyQ+G90f3t4/hrdOvupeABJAO3XSZUZbVBVDzi2YHqIFPOTdMw8qqs5ktf81zbf0JJOCSY2WZYYxdjsRAlhbe/ksyO0AVvBw5/w+Xi5dW1S39T4EEYIxZT2DMJlwO1+RegwDVoBpbvYrGMPmnTK2+nJxztRN88XIbCYx0qOXYGRKoCkTZWQdQ74Lz2MCfnSVKpao7CToFEoAx/tKVhhxyMWyGBKoCUqZ/gAZPPEWu5L/3NdvQLQ5bn6o+hHKqdgJYkXIxGuPGUDU7QC1serI0uGAhZT/5GSr/7c3au8n5rXgC417ZdMzMDtAAPEACKuQlWoNvH98Gbcd2WSEB3Cu5mJ1gIuTNDjARJs6VwVPPoexxTBKVOLwJS1gSWYAEyor0wXsS+QlRdtogQAvoDp7E5NDRJ9m1kswYw73SMMYTRtsgwASQ1FwAT8CMsSABG54ltmAnABIYnmDcEHYMAsCwDYouX6WaMV6/1lcTWjykeALsBMaAToakIxBArDpvvJI2zJ9D+ad+6XsugjEWPcHwULL1BMzTIOSKQQI2qPU9GxLyIFb9IZ784sPLwWhzSy8JjAQQkVKhkGzGGOQQkKDDwzCmGgGUVaeYNyBiGweiLa19jXLXXEBjz/zeNwoLTzB3gf180hlj+Bh3MBKkFgGqrTrHxe1B/M0Nb9Pw1Yto7Her/CGBYoyPPIFoeJO/NnR4yjDG6SSBhOxZeimNrWC5d70IzdgJXn+Zhq9Z5J8cAhJATzBvIZXBGCd5J6i4V3YiT5C6HUC5MSJ6Q6vY/KV1a0PhCXrnn0E0NppsJIB7JVuRjnSYsixVCCCTvxKrs+nkV+QHdoIwkADKsmNZYwzGOMk7QQdakaYGAYThhQ8v3Bi9xOpUSADGOChPAMY46UgA6RC7V3YKOZQKBMDKj6BVY99f3pzsUSt/7RFIAMZ46eeDI8En5iWfMWb4dIp7ZeIRwJHzP3RXfYa3drI3+q0Y48vPMoyx0hh3gIg00Qggk5+DVklmFi9kTzMkWL8uPMYYVqTVPAHOYVWaz9vXq+816lO7risRKZtSp5kxTiwCQM6PtEQIWhVqoFroCcJgjCEihRUppENDG+w/Rghrq63Jetc0sgYGxt8DUuhWgAQwpUaSjpTaDiXSIQYrv4QuQXz+KEKXKMaYzSYyFy6hnve8z9fUHDj+JOraehsqsva5e693kzV1W8kVnOnto/LoiOwEpfVvUuGPq6nw2A+o+Jc1lNlqOyJMPF1KpS+5r14n/UqbU00ml8vZ6fJ0AXiLfjiiTsnG6DINaYs2G95m2yFrhxk08G9X+UYC4qTZUlhx1rBwnfLICI3+9GFhPmXHiAKxG3bAxQ2QbowM/QsvSqRnWaNE2YkigUJjeF2Mt1QJiTGmZpMfL+L7mclTJAXSlssfpexR820eQSeyCDsBNMbgCVJEDiUGAUTUqVKRhsHwekECFpEGtSJ1+zqJTLFwMfV/9gKypkyxmWa3D0ddD0gAniBFptSJQABZ+VnD61h1Rj3Qte1jJ1BWpH6VZbVttviNXGB9n7vI5gd0khYBCaAsS0lAXu0RoKFVZ4sJFPptZUUaRFnmsVO9Bx1C/SefTaWXXvD4ZMTV1U6QAvdKrRFAVn5YdULDW8+qM+JxntC84gnYitS32cSERptfQPKLniPmsnaZvdB0KoonSLh7pbYIIJMfGdhh1anD5FeTryIiDWRKrdpyeRz49Nkc7rBLL34AfQcSwL0ywVakWiKAYni1TU5RQQJ4lgFRoy7d02dQ9ojjWG/ASjXdCpAAVqQwoEugZ5l2CNB2htftBONBL7HsvsSGeJEXFpP27H+wvRPqxBCrD1c8QQJth7RCAKz8KjmFJ5NmNRBxHnk17jn4X6hr+x1ieas1dTvq+ru9bfOJWN7o8SVAAhV3KEF6Am0QQGl4G7oxehyPyKszTd69x14EuX0cBWRQ1+4zGQE0tBlSAAASQFmWIOmQFggAsmfTdRfSGEyadTMBUINbfQQZwnxAZqsYE2kwGWRttY1ojau7ot05kICLZLRPgHtl243hxll1xqnhDThzrL4+27gtYDteHs8MTmYE6PXySHvqKiRgK1JIiqDU07W0FQGw8gvN38qBXVfoxd2vysSK+7W+3qeQ4EtX2Ujw0cN9NRP1Q20jgTD5A7kxRg2ZFu1DAlQeY5PmOAssMuFznJQCJEC0CY15grYggJLzC82vk5LLy8RiU+nSG9HrAKq7BL8CyueqL+l/DiQAY6ypiDR2BBA5fyVWp/aizkbTC3nDWBpTfPWl2KQygFvxpb/wisoa4aQVIAFEpEACzUSksSKAs/IjFSlidSa5sFSmuPo34sgSx2cU171B5ZefZ3q6iWNNHB3x+w6FBJqZUseGADL5EbeH3RgTu/JXDz6LQYurfkWF116uvhrZefc01gO8dz8mJzTWA7T6eoUE7F6pi9lELAjgKLl0sepsNVAe7o/ce7uH2v6rwmNs0nmXUfc/H2HHIvXfVHufBBLAgE4TxjhyBADtCiUXIrZpZdUZxjRgpV3+vtsDhVr32o3Ji6+h3uNPrUSZSHAyb8UYt1lZFikCCNnDEdu0ter0Ovvq1Ld22IEd2ZfGYhWqXj/ILpM9c44lQs4yHY3jVEebHRU51ObEfZEhgEh74Mb44B3JZ3ibDSR4gd+upNzd3yQgfFxl8PRFlP045ydIQyxSONq3yZQ6EgRwVn4OXZJ4aY+bGc2O4vkVy2n4rm/GJhaFEd7A/NMpe/gx9k7gpp861sFOAEf7NvEEoSOATH5IexC3hz+sIwr0Aiyfz997G226lh3ZY7LYBGM8eOq5whhLLKGkAhtI0CYr0lARQDG8+ftvtxleTIxOKfhW1mrDhXP9QXvS2K9/Fg9JxPoIMMbdh37c9htOMk/QBsY4tBmqrDoLj65Ih5zfL+KyZCgzZSptOutEGmIeCItCHGUyi0h7/vXodDDGMcYiDQUBMMgIVCtxexJk0hzZxOQtPTNpKyo9u8aTyyQiTfjOXsk7geQsA2OcdOkQfIxjSuEaGAFk8leSU6RCwxsmVvCk9FIQKBfZKwsvPOflMacueAIwxs5O4NxJ2IkSkYIxjth2KBACgOEVe/40KrnaMGes/j4qPPVr2gzFYQAkmHTmhYYxdjl+vhHAYXiXs+gvCW6MLgHS7mqZKYNU+uNvafOV5wUih1LDGPOARBaQt1DylycYK/8QB60KPTlFu2efLu/nBaX0/J9o+MYr/CMBf4vDGCc9hSv0BGEH3+LJ/7G/f5d3BFByfkx+s/JHiDEsUi39aTUNL/m8b3IIYdeFMUZQrTQwxl/9Qnga43yBPvKeHb0hAMgeiPbGQPMbsifC2V9pGkjAOwHIoSA8wcCCM23GeHhT9H2O6g1gjCNwr3TNAyhRp1h1JiEyQVQDEXe7QIKXnhPG2K+IFGYTMKVG4o3y+rVxf0F471Ma4xDzGLtCADX5kY1RVv5O0vCGN3z+W0IsUpBDAXkCsSI97Pjka4wZkmHpCVoiQPXk7wjDNv/TNNonsROwdCgoEkA6JHoCdkpxTKnZBIHYyV9CsCMMO85xTdei9AQhpGtqGhdIGF7Y88ONMek+vLoOppd+QTpU2QkGL2D7n1129/K0UxeM8XBfL43e9XW51jVtZ8rM2JUj3XEWy54eJpPWUfmV56n44p/lfmaQUzXxLqRVARJAOnTLEumW3+BbDRFARJ3M8HaUVadWI9ygM9gJnlsjjPHgxct8IYFojJkx7tpjH+radXfq2mY7ynDUBuquTAf2MShz8F9Evi7830oafeheKjz5c7Km7cjRHbxptxt8RTiXFU8AJOBzPylc6yKASHuQnKLTDdvCGabwWwFPUJEODSziFK4z9/H8DjDGzSZMhlu0tt5WEAxZamCnNHwzG/e9wLsCQrPowgcqJLj+8yLqRV+9lAk8gJA9bNhmJr8XMLahbkVEGpQncNtzJAufsvQb1DfvM/bk1y2FKwzofKRrGocAwvCyMwukPcawze3UaGM9IEFQZZmH7oN06v/kpwnJsrVM4eoje6WDAIrhRUI6w/B6mBXtrqp4ggAGdF4/AaQTUriWN65/R5LktZEo6ivG2IN7pY0A7MI3fN8dduiSTnFjjGIA2tVmRToUxIrUa9eRwrV3wXl6pnBlEe7oN6+n/FO/bPlZggCjTzxG+XtuZZc+jj+vC3PTsuumwjgIYCeAFeklZwQyoBvXZosfgyeeom0K1xKLcnPgZVuYlVsgfUYfvIuoyIoRM/lbDLnmt7ETvPJCYGWZ669kY7v+IzgqBUSouvkiV0jD0Ud+0DRIgYXYlohxmbqoba5HMWUVKzsBrEjjKF27703d+3+YJ5mGKVyz/VT4wXIqbdwwERTdFj357F/Jyv/80Yk3zZXEQ8DagzNKxlCgK+jZ9x/t1E267QKstCu+9iKNrV41ERLZbrpz5UtkFVY+zluYZmruid01VzxCILv/wR6f8F+9a+fdyGJtMoLe6lYy2T4aW/lE/W4xEligGbVSb9fvqrnqFgK8ClvbbE9dO+/u9onA9brYRCLDOwEVC4HbCr0BFuwUn17ZsNm6phANa5sb+kMAsUK3mEoWK63iKiCDxJAurhd6eQ8LdiARUmW7n31BncrRUYSNu2p+JBcC5SIH5toi/v6zFam2pQlv0o18t8h4aEq6ICDWnXF/UqYr7je2fh9Iwi225Hrs58BlzTN/oNHRUerr5RA0rDCzMjPfYztAyG3zL/EQYKOwMvtuw5w5zlIe4tDwvPtoV1g8m9lt5rhuZTKwdbWLlf3QIVTeHF9ce/Vic4wIAjBVZq8u2PLHVWBEKd5kGu4AmNvZ/Q5wQJGhdyY/Llrde+1jW37q7ALndN+ctIQAmL51a9mb67mWVcOqUHjxWSr/9dV3HGrCajhoO0z+IFBx9z9wcsFKKVOZnd562PChyP4/PYwA02dQ9rC5dtwYVcscEw+B/E8fju0bSi+9SKW339LPlIbDwEBLjTneqFgInpQ9+FCydmK5MRyiTUk+BFj2jTwFcSTqAPkz9vT/6qcDAEXDtlG9czhvQpMgxSIGhUvdwMLzyZq6jd7RAJI/NeP5gopR4+Y72MI34gIzA4TF18ppHmJPVsr1n3w2Zff9YFMIOHqAnlkHUu/J54pzsdYhMZp+jrnpQIB3gfwDd7Y0B3bq+zjB6j9y920kUSN8PB/ZIxwGMnvUp6j30MNbvsJBANSEpw/c3SSOpGGKWwJP6wrYBTi+T+6OWyLLUoPMmMWnn9Rq9S+/+Spl5y6ggeNPJjj+tyrjEACVBQnOu5oIcmSDBK3gp/d9DmFZeOIRO4VrjnMKh1hGOMF1/t+/o5XvOMI+9s47nQZPWkjwX3ZTJiAAHkKQof4zLrYZG4MEbuCoZx3sAsheef93OYXrt0LrI7K25G693vYgDK3VAA2B5h/awHmTPyUZcpoxvbVvqYsAqIT4Kv3nXmV4glqIJe03kICdZEZuvJw2nDY3EDkEmn9o2WWUW8ZkMkqF2bZ/tOk/Jj9re7PHnULIjON25Ve9bYgAqCDk0GmLDBIoaCX4aO2ym4RQ2TB/DoF8EV9Zl/mMhdnlTO6bFh5PYyvusVd+XSZ/heEF2eNl5VdD2dIcWsVcFKxHxAiEnjAlmRDgnUASUnMAKWvXPal71oeoe693k/Wu6XZ4xIFB+a7y8GYqrnuDSqzdLTz7Jyqu/g3/PWV/M8vWdSnlt14Xmn/gxNN8TX58R0sEQCVBAp74uSWL8dMggQ2FZP7HAsZ/pZdfoDyHV8wzUoj+h4+ZftszsJzj6NBQisKmaMPb9nciJ4QOq34F6pD29J50DmHyu5H2NBosVwiAh0EOyerBQYdEOmR2gkYwTcZ1BLnFH9PQpTde52N5fL85G4vEANUtKjRofiZ7IO0JOvnxwa4RAJWdncAgAcCRjoJVXaOVvSlQFcMLOX/AlV+9pykTrCpVHx1lGVYMIyKtBo05jxICmPxs3AYNr8j5XSi53HTHMwKgUUGCz55v9ARuIGzqhAMBnvw9c46Vye9H2tOoE74QAI2JnuDMS43ZRCPImuuhQQAMr0x+zmwT5uRHBz3xALVf5PAEN11mGONa4JjfwSFQIXvCkPY06ozvHUA16PAEkAoZnkCBxRyDQkAxvKzhDYvhrdelwAiARrETiBWpMaCrB2NzzQcEyn97k7LH8uR3adXp4xXySCASqPqljp7gi5fbl42eoBo85twDBGDVCcM2hF8Pm+av7UZoCICGhSdgMgi5mqQYJLDhYP67gwCTPbLyY/JHwPDW60SoCIAXSJY+5G/tZGUZEsixJtWatpP3EIWIrwleqtMWD9D80PDOPyN0UWe9ia+uhY4AggQwm+DScUiAQeTYnNZue1L/KWe19EcVIFX9g1vqwOJlkpcXtjqStzcpWtqq7/B8qhhe1vD6ter0/M7KA5EgANoWnoCPOU5nj4zeqV/RKhKw7OHHUP9xJ0uO3QqMPR2wgyKODVwZC4//iGlgvYzQPH2My8pi1QnDNmZ4o6b5a7sUGQLgRQ4SpN2KFCsYvpdz6PYfMz/wIHbvsjtNOvti2szmycjaSTBjTmkRq86QDNv8gCgUMWizF4ueAO6VaRaRwkblyBMkh25YKxg8mwZPX0Rd758t7n7NYJzIe7xoiLTn6JPFjTGISXOQ748cAdA5MZtYdK1NBqVNWcY2812zP2LTrkFGos6zmBRTlnJsH8T7rOwydaol71KF5heGl5HcqxtjmB8cCwKgw7ITIOQKBjMtSIBVbGQzTTqHbaKaRB8LOmADl94olpBB29HieUz+KjfGdq38ChaxIQBeKEjw2QvSQw6B9GGZNTKkRFmysw6grv0OtL20onxRDG3bcv4TxLwhykXD7afEigDolJhNnHNFKpCgnB+hvqPmuYW173pYJbMfnsMkpO3B5buhNj8oQasQumTBmYHcGMP8jNgRAJ0XJABPkGTGmGn/7tmHUFfEq78abISxt2bsInoGdS0xR5CKCFrFok4w9u0me6rh1hYEQAeEHEoyY8wpQXtYXh8XA9e1/Q4kuX8LrGVOUqlieKO06vQLkrYhADrsMMZJc6/EoLJyz9pxZ79w9/wcVk1ru2men2vrA4BTxY0xaqtOv98ZqSLMTaeABJAK5ZJmRcq2OpnJk918Ymh1urbm8PVZ1gwnpcjknx+7eYMX8LR1B1AdFZ7g9AsTxRMgD29bwoJDjJyAApofboxgeHWQ9jQCmRYIgM45yjL8SICeAEnoYk8uCAtRGMeBtNC1oG8cqNZRcoUUvSGqz9UGAfCBDk+AgdYdCXigy5s2RTUuddstrn3d1gXoaiGKyc/WsAhUG2bokrrACOmiVgiAbxJyCBpjnUWkmICszSy/vT6kYXDRDALZ5hjhWPqkaxEl1yfmtcWq0y9MtEMAfIgjIuVJpvNOMLbmaSqHnHii0UAWXn2Zis89oy09LVad7Mwiok6XySkafWuc17VEAABAkOCsy/QNvsVi0MLjDxMiKcdRSuvfoOKf1zACaCYFqtD8WVh1hhSuMA54qndoiwDooDDGCL6lowEdk0HY8vOPP6JgGd2RyZ/8T9g5hplLreJ4YvKLYRuLOjXT8LodDK0RAB8hPAH8CTRkjDNbbisBAKImg8b+8mdOc3S7nZjC7chGXQ+TH5lZ4MZ46rlamTd4+XTtEQAf40iHdOMJsAuwOfQwuy9GWXK3LKVMHyev0Ej6IwwvB6oF2aOznL/VuCQCAfARggQaZq/ELpB/6F4a4RRCUZTc975BhScf08otUhje409NJM1fO0aJQQB0XMghmFLrtBNgVeYwKKPf+TKN/W5VLXwD/UYur5E7v0ZAMi0Kkz1i1QkfXo1MmoPAJlEIgA8VJLhgiV48AWdaKa1bS8OXn0WjP/0fpo1ZZh+ggKfAyi8BxiAA0IH0qdD80PCmZfJjiBKHAOi0wxPoJB3iVEKljRtp8+JTaPMdt/pORzr2zO9p6KaraOQbnIcX4WR0mfwi7bFpfp3s+TEfgpS2W4P67TyQAEoyraxIeScAuTJ62zLJrJg96KMS4wdhTpoW3jEg6Sn85gnKP/BdKq1fR6RRNkbbpFlvq86m8G1yM7EIgG8COSRIgPwEugTf4hU7M3V7SSuaY02xNX1nsnbeg3re+37qmjaNyhDncsn09PFEf5NKr7xIY3/4LZVffp7Tkr4m90ijOEDixggll+ZWnTbgvP/P5HK5svfH9HoCEhhJ4Qpb+coE06KHoJvZOIzKbL+TYVq+m9ebapKm+n4X39Os7xB1Cs2fQA1v7fjvOXNvubTmmT9QuVymMjthdXV1BcsQU/uSdv0Wcohfrl0sUkx2pCJtVFrdb/Rc1NcriJmWyd8MXIlkgut9kDDGp3EcUhTdTantXur7H55cFavONDG89QCeaB6g9oOEJ2AywmS0r4WM+98i5485RLn73oVfMzU7gAKN7ASwHVJx9tUNc2wOAZA9bGyHQF9JN29o/qHj76ZqB1CfBitSMJS5L11lk0M6MZeqkzodMfkrDuxpUnK5AXEqEQAf7pBDnZypxs0MwOSHVWfFjTHJhm1uPre2TupIoOoPFHJId/fK6g634dyx6mxDcoo2fO6EV6Z2B1Bf6ohI056kQ32wh6NYdSIzSwrk/B4+e1zV1CMAvlaQAGYTN1xif3yn8wRM9sjKn1A3xnEzOOCPjkAAwEh4Aj7mvnpdZzPGoPnZsK0X9vwpMWkOggMdgwAOEkA61KmMsWJ42Y2xk8meaoRJNRNc/aHqvJMZY8XwJiVolRqzKI8dhwAApiBB2hP31cwasersMCVXDQjq/uwoEqgaAqIsYxPq1OcxBsP71uvUCzfG+acnNnpD9diFed6xCAAgOiLStPIEFZofmVkMzV8fbTqSBKoGhcMTQDSaJivSirQni9AlrORKu1Vn9Zh6Oe/oHUABytkJUqQsU84sYHg7zbxBjaubY8fvAApIDmOcAitSmDTDqtNMfjW6jY9mB6iCjWNFmlSNMRhedmOUyX/qOWblrxrbRqcGAWogk1grUsXwdpAzS83Q+fppSKA6YBNyKGnulVXZGA3NX2dQG1wyCNAAMNgJ+pGfQKcwjA36KkoutucXUWeCklM0+JxYLxsSqAm4RTqkW/Ct6v6C7MHKb6w6q6Hi6dzsAC3AJTsBUrjqlsy7MvmRinSQGV4j528xkA1umx2gAWCqL0M6lNlqKo18+WqJ/9k01k/1g1GdVxjeTnVjDBOsZgdwCc3egw6hvs9dRNaUKRIO3eVj0VSrBKo1cv7g4DUI4AGGCgnIyrQNCWyrzhOE4TXSHg+D16CqIYEaAKbRZSAByvC1F9hI0Cz0YaNGfF43Prw+AdfkMYMATYDT6JZCgth4AtD8cGOESXMHO7A3Gg8v1zMcCppj40rhfTwdwXG9ACCsurEhgWJ4jRtjWENHmPgoOBoeQEDh75/DEyDsOecJi6RUNLzGjTEc6GLSy19lFzAIEBCuQIKB86/mpYTBGjISwKpT5PzGpDngKDV+3CoggYMpgSAgSLCYw62EuBMIw8uhS6DkMtKeQMPT9GHrlVdfbVrB3HQHASDBpMuuD64nEA3vEMGNUTKwG9sedwPgs5b15JO/9vmoeawWAj2zDnxHWTY8VHu79W+4ZCJQLRjeDo3V2RpIwWqA9Jc/MAJcrAfuf8A+M/9DgQB2gv4LryNr1z0l3r4rvgCrPsfmR0j3frY7MladoQxFw0YcJOAa1lOrVtG99y1vWNnc8A6B7L4fpMGLl1F23kKytt5GsqvLBMdEVwXnozn7XqlI3f90GA1ecROJ3VE/5wc2JRIIlB0xkL0TZGbstIsIhL79rdto9uz9I3lpxzbK+X9LGzfQ2OpVNLbyCSo+vdLOAcyT39piS8rsNpOy+x1g5xKePsMwuxFOlHeyRK6hkdERKvEYDPBC4yBAhO82TRsIaAsBowfQdmhMx+KAwP8D0aXSPpOqz3cAAAAASUVORK5CYII=;" vertex="1" parent="1">
          <mxGeometry x="280" y="720" width="41.07" height="40" as="geometry" />
        </mxCell>
        <mxCell id="g2giiAnqPQ5w9crpu-lO-5" value="Azure&lt;br&gt;Build&lt;br&gt;Pipeliine" style="image;sketch=0;aspect=fixed;html=1;points=[];align=center;fontSize=12;image=img/lib/mscae/Azure_Pipelines.svg;" vertex="1" parent="1">
          <mxGeometry x="385" y="720" width="40" height="40" as="geometry" />
        </mxCell>
        <mxCell id="g2giiAnqPQ5w9crpu-lO-6" value="Azure&lt;br&gt;Container&lt;br&gt;Repose" style="image;aspect=fixed;html=1;points=[];align=center;fontSize=12;image=img/lib/azure2/containers/Container_Registries.svg;" vertex="1" parent="1">
          <mxGeometry x="480" y="720" width="44.59" height="40" as="geometry" />
        </mxCell>
        <mxCell id="g2giiAnqPQ5w9crpu-lO-7" value="Azure&lt;br&gt;Release&lt;br&gt;Pipeline" style="image;sketch=0;aspect=fixed;html=1;points=[];align=center;fontSize=12;image=img/lib/mscae/Azure_Pipelines.svg;" vertex="1" parent="1">
          <mxGeometry x="560" y="720" width="40" height="40" as="geometry" />
        </mxCell>
        <mxCell id="g2giiAnqPQ5w9crpu-lO-8" value="Kubernetes&lt;br&gt;Cluster" style="image;aspect=fixed;html=1;points=[];align=center;fontSize=12;image=img/lib/azure2/containers/Kubernetes_Services.svg;" vertex="1" parent="1">
          <mxGeometry x="640" y="720" width="45.34" height="40" as="geometry" />
        </mxCell>
        <mxCell id="g2giiAnqPQ5w9crpu-lO-9" value="Application&lt;br&gt;Insights" style="image;aspect=fixed;html=1;points=[];align=center;fontSize=12;image=img/lib/azure2/devops/Application_Insights.svg;" vertex="1" parent="1">
          <mxGeometry x="652.8900000000001" y="908" width="19.55" height="28" as="geometry" />
        </mxCell>
        <mxCell id="g2giiAnqPQ5w9crpu-lO-10" value="" style="endArrow=classic;html=1;rounded=0;exitX=0.14;exitY=0.65;exitDx=0;exitDy=0;exitPerimeter=0;edgeStyle=orthogonalEdgeStyle;" edge="1" parent="1" source="g2giiAnqPQ5w9crpu-lO-2">
          <mxGeometry width="50" height="50" relative="1" as="geometry">
            <mxPoint x="380" y="930" as="sourcePoint" />
            <mxPoint x="260" y="920" as="targetPoint" />
          </mxGeometry>
        </mxCell>
        <mxCell id="g2giiAnqPQ5w9crpu-lO-24" value="1" style="edgeLabel;html=1;align=center;verticalAlign=middle;resizable=0;points=[];" vertex="1" connectable="0" parent="g2giiAnqPQ5w9crpu-lO-10">
          <mxGeometry x="-0.3185" relative="1" as="geometry">
            <mxPoint as="offset" />
          </mxGeometry>
        </mxCell>
        <mxCell id="g2giiAnqPQ5w9crpu-lO-11" value="Backlog" style="image;aspect=fixed;html=1;points=[];align=center;fontSize=12;image=img/lib/azure2/devops/Azure_DevOps.svg;" vertex="1" parent="1">
          <mxGeometry x="409.5" y="990" width="40" height="40" as="geometry" />
        </mxCell>
        <mxCell id="g2giiAnqPQ5w9crpu-lO-12" value="" style="endArrow=classic;html=1;rounded=0;exitX=1;exitY=0.5;exitDx=0;exitDy=0;" edge="1" parent="1" source="g2giiAnqPQ5w9crpu-lO-4" target="g2giiAnqPQ5w9crpu-lO-5">
          <mxGeometry width="50" height="50" relative="1" as="geometry">
            <mxPoint x="380" y="930" as="sourcePoint" />
            <mxPoint x="430" y="880" as="targetPoint" />
          </mxGeometry>
        </mxCell>
        <mxCell id="g2giiAnqPQ5w9crpu-lO-26" value="3" style="edgeLabel;html=1;align=center;verticalAlign=middle;resizable=0;points=[];" vertex="1" connectable="0" parent="g2giiAnqPQ5w9crpu-lO-12">
          <mxGeometry x="0.0302" relative="1" as="geometry">
            <mxPoint as="offset" />
          </mxGeometry>
        </mxCell>
        <mxCell id="g2giiAnqPQ5w9crpu-lO-15" value="" style="endArrow=classic;html=1;rounded=0;exitX=0.95;exitY=0.375;exitDx=0;exitDy=0;exitPerimeter=0;entryX=-0.045;entryY=0.375;entryDx=0;entryDy=0;entryPerimeter=0;" edge="1" parent="1" source="g2giiAnqPQ5w9crpu-lO-5" target="g2giiAnqPQ5w9crpu-lO-6">
          <mxGeometry width="50" height="50" relative="1" as="geometry">
            <mxPoint x="380" y="930" as="sourcePoint" />
            <mxPoint x="430" y="880" as="targetPoint" />
          </mxGeometry>
        </mxCell>
        <mxCell id="g2giiAnqPQ5w9crpu-lO-27" value="4" style="edgeLabel;html=1;align=center;verticalAlign=middle;resizable=0;points=[];" vertex="1" connectable="0" parent="g2giiAnqPQ5w9crpu-lO-15">
          <mxGeometry x="-0.0908" y="-4" relative="1" as="geometry">
            <mxPoint as="offset" />
          </mxGeometry>
        </mxCell>
        <mxCell id="g2giiAnqPQ5w9crpu-lO-17" value="" style="endArrow=classic;html=1;rounded=0;entryX=0;entryY=0.5;entryDx=0;entryDy=0;entryPerimeter=0;" edge="1" parent="1" target="g2giiAnqPQ5w9crpu-lO-7">
          <mxGeometry width="50" height="50" relative="1" as="geometry">
            <mxPoint x="520" y="740" as="sourcePoint" />
            <mxPoint x="488" y="745" as="targetPoint" />
          </mxGeometry>
        </mxCell>
        <mxCell id="g2giiAnqPQ5w9crpu-lO-28" value="5" style="edgeLabel;html=1;align=center;verticalAlign=middle;resizable=0;points=[];" vertex="1" connectable="0" parent="g2giiAnqPQ5w9crpu-lO-17">
          <mxGeometry x="0.15" y="-2" relative="1" as="geometry">
            <mxPoint as="offset" />
          </mxGeometry>
        </mxCell>
        <mxCell id="g2giiAnqPQ5w9crpu-lO-18" value="" style="endArrow=classic;html=1;rounded=0;entryX=-0.022;entryY=0.425;entryDx=0;entryDy=0;entryPerimeter=0;" edge="1" parent="1" target="g2giiAnqPQ5w9crpu-lO-8">
          <mxGeometry width="50" height="50" relative="1" as="geometry">
            <mxPoint x="600" y="737" as="sourcePoint" />
            <mxPoint x="498" y="755" as="targetPoint" />
          </mxGeometry>
        </mxCell>
        <mxCell id="g2giiAnqPQ5w9crpu-lO-29" value="6" style="edgeLabel;html=1;align=center;verticalAlign=middle;resizable=0;points=[];" vertex="1" connectable="0" parent="g2giiAnqPQ5w9crpu-lO-18">
          <mxGeometry x="-0.077" relative="1" as="geometry">
            <mxPoint as="offset" />
          </mxGeometry>
        </mxCell>
        <mxCell id="g2giiAnqPQ5w9crpu-lO-19" value="" style="endArrow=classic;html=1;rounded=0;exitX=0.507;exitY=1.05;exitDx=0;exitDy=0;exitPerimeter=0;entryX=0.552;entryY=-0.036;entryDx=0;entryDy=0;entryPerimeter=0;edgeStyle=orthogonalEdgeStyle;" edge="1" parent="1" source="g2giiAnqPQ5w9crpu-lO-8" target="g2giiAnqPQ5w9crpu-lO-9">
          <mxGeometry width="50" height="50" relative="1" as="geometry">
            <mxPoint x="453" y="765" as="sourcePoint" />
            <mxPoint x="670" y="900" as="targetPoint" />
          </mxGeometry>
        </mxCell>
        <mxCell id="g2giiAnqPQ5w9crpu-lO-30" value="7" style="edgeLabel;html=1;align=center;verticalAlign=middle;resizable=0;points=[];" vertex="1" connectable="0" parent="g2giiAnqPQ5w9crpu-lO-19">
          <mxGeometry x="0.149" y="-3" relative="1" as="geometry">
            <mxPoint as="offset" />
          </mxGeometry>
        </mxCell>
        <mxCell id="g2giiAnqPQ5w9crpu-lO-20" value="" style="endArrow=classic;html=1;rounded=0;exitX=0.006;exitY=0.464;exitDx=0;exitDy=0;exitPerimeter=0;" edge="1" parent="1" source="g2giiAnqPQ5w9crpu-lO-9">
          <mxGeometry width="50" height="50" relative="1" as="geometry">
            <mxPoint x="662.8900000000001" y="960.235445812649" as="sourcePoint" />
            <mxPoint x="450" y="920" as="targetPoint" />
          </mxGeometry>
        </mxCell>
        <mxCell id="g2giiAnqPQ5w9crpu-lO-31" value="8" style="edgeLabel;html=1;align=center;verticalAlign=middle;resizable=0;points=[];" vertex="1" connectable="0" parent="g2giiAnqPQ5w9crpu-lO-20">
          <mxGeometry x="-0.1231" relative="1" as="geometry">
            <mxPoint as="offset" />
          </mxGeometry>
        </mxCell>
        <mxCell id="g2giiAnqPQ5w9crpu-lO-21" value="" style="endArrow=classic;startArrow=classic;html=1;rounded=0;" edge="1" parent="1" source="g2giiAnqPQ5w9crpu-lO-11">
          <mxGeometry width="50" height="50" relative="1" as="geometry">
            <mxPoint x="380" y="930" as="sourcePoint" />
            <mxPoint x="430" y="940" as="targetPoint" />
          </mxGeometry>
        </mxCell>
        <mxCell id="g2giiAnqPQ5w9crpu-lO-32" value="9" style="edgeLabel;html=1;align=center;verticalAlign=middle;resizable=0;points=[];" vertex="1" connectable="0" parent="g2giiAnqPQ5w9crpu-lO-21">
          <mxGeometry x="-0.0402" y="1" relative="1" as="geometry">
            <mxPoint as="offset" />
          </mxGeometry>
        </mxCell>
      </root>
    </mxGraphModel>
  </diagram>
</mxfile>
